<svg width="170" height="43" fill="none" xmlns="http://www.w3.org/2000/svg"><path d="M13.265 33a14.243 14.243 0 01-6.3-1.96c-1.913-1.167-3.442-2.66-4.585-4.48C1.26 24.74.7 22.803.7 20.75c0-2.263.548-4.375 1.645-6.335 1.097-1.983 2.928-3.593 5.495-4.83 2.567-1.26 5.915-1.89 10.045-1.89.747 0 1.657.058 2.73.175 1.073.093 2.147.198 3.22.315 1.237.14 2.508.28 3.815.42 1.33.117 2.497.175 3.5.175 1.283 0 2.52-.315 3.71-.945 1.213-.653 2.193-1.435 2.94-2.345.747-.933 1.12-1.773 1.12-2.52 0-.467-.175-.828-.525-1.085-.35-.28-.887-.42-1.61-.42-.56 0-1.05.28-1.47.84-.397.537-.595 1.12-.595 1.75 0 .747.303 1.307.91 1.68-1.19.747-2.298 1.12-3.325 1.12-.887 0-1.598-.268-2.135-.805a2.667 2.667 0 01-.805-1.96c0-.653.21-1.272.63-1.855.443-.607 1.108-1.097 1.995-1.47.887-.397 1.983-.595 3.29-.595 1.54 0 2.87.268 3.99.805 1.12.513 1.96 1.19 2.52 2.03.56.84.84 1.727.84 2.66s-.28 1.82-.84 2.66c-.537.817-1.365 1.482-2.485 1.995-1.097.513-2.415.77-3.955.77-.933 0-2.217-.14-3.85-.42a65.694 65.694 0 00-3.36-.42 26.69 26.69 0 00-3.15-.175c-2.847 0-5.413.467-7.7 1.4-2.263.933-4.048 2.322-5.355 4.165-1.307 1.843-1.96 4.06-1.96 6.65 0 1.633.315 3.208.945 4.725.63 1.517 1.517 2.753 2.66 3.71 1.167.957 2.485 1.435 3.955 1.435v-8.82c0-.817-.14-1.563-.42-2.24-.257-.677-.782-1.237-1.575-1.68v-.49h12.39v.49c-.793.443-1.33 1.003-1.61 1.68-.257.653-.385 1.4-.385 2.24v6.02c0 .443-.187.957-.56 1.54-.373.583-.91 1.085-1.61 1.505-.7.397-1.528.595-2.485.595h-8.015zm16.078-.49c.793-.443 1.318-1.003 1.575-1.68.28-.677.42-1.423.42-2.24v-8.435c0-1.633-.047-2.812-.14-3.535-.094-.723-.28-1.237-.56-1.54-.257-.303-.689-.502-1.295-.595v-.49h10.395v4.375a11.477 11.477 0 012.765-3.255c1.143-.957 2.286-1.435 3.43-1.435 1.073 0 1.89.327 2.45.98.56.63.84 1.4.84 2.31 0 .933-.315 1.668-.945 2.205-.63.537-1.377.805-2.24.805-.887 0-1.657-.28-2.31-.84-.654-.56-.98-1.342-.98-2.345 0-.21.046-.467.14-.77-.444.327-.969.863-1.575 1.61a17.5 17.5 0 00-1.575 2.31v8.645c0 .84.128 1.598.385 2.275.28.653.816 1.202 1.61 1.645V33h-12.39v-.49zm30.952.98c-1.867 0-3.64-.338-5.32-1.015a9.434 9.434 0 01-4.13-3.185c-1.073-1.47-1.61-3.313-1.61-5.53 0-1.703.397-3.325 1.19-4.865.794-1.54 2.007-2.788 3.64-3.745 1.657-.98 3.687-1.47 6.09-1.47 2.334 0 4.352.432 6.055 1.295 1.704.863 2.555 2.24 2.555 4.13 0 1.797-.723 3.208-2.17 4.235-1.447 1.003-3.243 1.505-5.39 1.505-1.026 0-2.17-.152-3.43-.455.303 1.307.805 2.438 1.505 3.395.7.933 1.493 1.645 2.38 2.135.887.467 1.774.7 2.66.7 1.027 0 1.89-.338 2.59-1.015.7-.677 1.144-1.668 1.33-2.975h.7c-.093 1.4-.537 2.625-1.33 3.675-.793 1.027-1.832 1.82-3.115 2.38-1.283.537-2.683.805-4.2.805zm-2.66-9.765c.327.047.572.07.735.07 1.307 0 2.357-.63 3.15-1.89.817-1.26 1.225-2.858 1.225-4.795 0-.84-.128-1.528-.385-2.065-.233-.537-.595-.805-1.085-.805-1.19 0-2.123.712-2.8 2.135-.677 1.4-1.015 3.115-1.015 5.145 0 .723.059 1.458.175 2.205zm23.749 9.765c-1.867 0-3.64-.338-5.32-1.015a9.434 9.434 0 01-4.13-3.185c-1.073-1.47-1.61-3.313-1.61-5.53 0-1.703.397-3.325 1.19-4.865.793-1.54 2.007-2.788 3.64-3.745 1.657-.98 3.687-1.47 6.09-1.47 2.333 0 4.352.432 6.055 1.295 1.703.863 2.555 2.24 2.555 4.13 0 1.797-.723 3.208-2.17 4.235-1.447 1.003-3.243 1.505-5.39 1.505-1.027 0-2.17-.152-3.43-.455.303 1.307.805 2.438 1.505 3.395.7.933 1.493 1.645 2.38 2.135.887.467 1.773.7 2.66.7 1.027 0 1.89-.338 2.59-1.015.7-.677 1.143-1.668 1.33-2.975h.7c-.093 1.4-.537 2.625-1.33 3.675-.793 1.027-1.832 1.82-3.115 2.38-1.283.537-2.683.805-4.2.805zm-2.66-9.765a5.7 5.7 0 00.735.07c1.307 0 2.357-.63 3.15-1.89.817-1.26 1.225-2.858 1.225-4.795 0-.84-.128-1.528-.385-2.065-.233-.537-.595-.805-1.085-.805-1.19 0-2.123.712-2.8 2.135-.677 1.4-1.015 3.115-1.015 5.145 0 .723.058 1.458.175 2.205zm12.689 8.785c.793-.443 1.318-1.003 1.575-1.68.28-.677.42-1.423.42-2.24v-8.435c0-1.633-.047-2.812-.14-3.535-.093-.723-.28-1.237-.56-1.54-.257-.303-.688-.502-1.295-.595v-.49h10.395v2.765a7.956 7.956 0 012.94-2.275 8.787 8.787 0 013.57-.77c1.19 0 2.287.233 3.29.7 1.027.443 1.843 1.108 2.45 1.995.63.863.945 1.89.945 3.08v9.1c0 .84.128 1.598.385 2.275.28.653.817 1.202 1.61 1.645V33h-12.39v-.49c.793-.443 1.318-1.003 1.575-1.68.28-.677.42-1.423.42-2.24v-8.61c0-1.12-.233-1.972-.7-2.555-.467-.607-1.05-.91-1.75-.91-.84 0-1.622.385-2.345 1.155v10.92c0 .84.128 1.598.385 2.275.28.653.817 1.202 1.61 1.645V33h-12.39v-.49zm33.127-20.44a3.359 3.359 0 01-2.415-.98 3.359 3.359 0 01-.98-2.415c0-.91.327-1.692.98-2.345.677-.677 1.482-1.015 2.415-1.015s1.727.338 2.38 1.015c.653.653.98 1.435.98 2.345a3.36 3.36 0 01-.98 2.415c-.653.653-1.447.98-2.38.98zm-6.125 20.44c.793-.443 1.318-1.003 1.575-1.68.28-.677.42-1.423.42-2.24V18.405c0-1.307-.128-2.252-.385-2.835-.257-.583-.793-.945-1.61-1.085v-.49h10.395V28.59c0 .84.128 1.598.385 2.275.28.653.817 1.202 1.61 1.645V33h-12.39v-.49zm13.774 0c.794-.443 1.319-1.003 1.575-1.68.28-.677.42-1.423.42-2.24V15.395h-1.26v-1.4h1.26v-1.54c0-1.563.502-2.823 1.505-3.78 1.027-.98 2.345-1.715 3.955-2.205 1.05-.35 2.112-.583 3.185-.7 1.097-.14 2.042-.21 2.835-.21v.63c-.723 0-1.423.21-2.1.63-.653.42-.98 1.237-.98 2.45v4.725h2.625v1.4h-2.625V28.59c0 .84.129 1.598.385 2.275.28.653.817 1.202 1.61 1.645V33h-12.39v-.49zm19.557 4.025l.49-.14c.373.35.91.618 1.61.805.7.21 1.447.315 2.24.315 1.167 0 2.217-.233 3.15-.7.933-.467 1.552-1.178 1.855-2.135l.56-1.68h-6.825v-.56c.233 0 .42-.128.56-.385.14-.28.21-.595.21-.945 0-.327-.07-.63-.21-.91l-7.105-13.16c-.42-.7-.863-1.283-1.33-1.75-.443-.467-.875-.7-1.295-.7v-.595h12.18v.595c-.957 0-1.435.385-1.435 1.155 0 .35.093.712.28 1.085l6.265 11.585.77-2.73c.677-2.38 1.015-4.282 1.015-5.705 0-1.33-.292-2.45-.875-3.36-.56-.91-1.493-1.598-2.8-2.065v-.56h8.75v.56c-.63.233-1.307.91-2.03 2.03-.7 1.12-1.388 2.672-2.065 4.655L162.421 33l-1.82 5.985c-.397 1.26-1.283 2.158-2.66 2.695-1.377.56-2.765.84-4.165.84l-2.03-5.985z" fill="#55B76B"/></svg>