<svg width="132" height="132" fill="none" xmlns="http://www.w3.org/2000/svg"><g filter="url(#filter0_d_4_107)"><circle cx="66" cy="66" r="55" fill="#fff"/></g><g clip-path="url(#clip0_4_107)"><path d="M30 65.597c.198-1.11.284-2.256.617-3.324.706-2.27 1.514-4.508 2.333-6.74.833-2.279 1.727-4.532 2.596-6.799.081-.21.172-.416.277-.668l2.286.872c-.09.27-.16.505-.245.732-1.428 3.783-2.91 7.544-4.272 11.348-1.637 4.572-1.395 9.128.396 13.619.11.277.218.556.35.897l-2.28.955c-.838-1.945-1.48-3.883-1.776-5.926-.093-.635-.189-1.272-.282-1.909v-3.057zm71.152 29.188h-2.458V83.528h2.458v11.257zm-.001 5.002h-2.5v-2.504h2.5v2.505z" fill="#000"/><path d="M57.397 81.54v3.166c1.075.438 1.232.671 1.232 1.823v9.032c0 1.122-.174 1.375-1.254 1.786v3.655h-2.477v-3.677H42.404v3.665h-2.511v-3.662c-1.137-.204-1.299-.993-1.289-1.965.032-2.893.012-5.79.012-8.685 0-1.453.233-1.732 1.696-1.97-.365-.884-.728-1.754-1.086-2.628-.992-2.416-2.038-4.812-2.962-7.254-1.974-5.23-1.82-10.464.157-15.665 2.35-6.178 4.709-12.355 7.068-18.53 1.056-2.769 3.236-3.864 6.086-3.112.24.064.612-.076.818-.247 1.984-1.659 4.135-3.036 6.511-4.062 5.366-2.323 10.893-2.813 16.571-1.477a25.198 25.198 0 0110.726 5.433c.429.365.781.458 1.345.287 2.131-.654 4.468.326 5.343 2.374 1.171 2.739 2.188 5.546 3.249 8.332 1.53 4.018 3.106 8.02 4.544 12.07 1.862 5.246 1.556 10.459-.549 15.584-1.21 2.95-2.44 5.89-3.69 8.903l.483.066c.782.115 1.208.546 1.21 1.352.015 3.266.01 6.531.003 9.797 0 .796-.478 1.215-1.242 1.39v3.664h-2.472v-3.643H79.91v3.656h-2.48v-3.67c-1.124-.204-1.313-.956-1.303-1.914.03-2.94.03-5.882 0-8.824-.01-.94.216-1.649 1.245-1.847v-3.195c-6.652 2.6-13.286 2.617-19.976-.007h.002zm-8.565-29.95c3.486.399 4.795 1.874 4.795 5.291 0 2.71.022 5.42-.01 8.129-.015 1.347.225 2.612.808 3.83 1.409 2.941 2.342 6.028 2.698 9.28.046.418.203.68.639.864 6.43 2.732 12.85 2.73 19.273-.017.395-.17.564-.402.608-.811.355-3.297 1.313-6.424 2.741-9.41.551-1.151.777-2.352.764-3.628-.027-2.965-.014-5.929-.004-8.893.004-1.911.823-3.366 2.574-4.17.65-.296 1.404-.358 2.163-.539-.066-.176-.137-.39-.222-.595-.976-2.3-1.963-4.594-2.918-6.899-.228-.549-.49-1.149-.473-1.717.027-1.01.257-2.014.419-3.131-9.633-8.465-23.592-6.679-30.792.245.725 1.247.894 2.562.401 3.93-.25.695-.556 1.371-.842 2.052-.863 2.041-1.728 4.08-2.622 6.191v-.002zm31.113 33.149c.1.012.19.034.275.034 3.682 0 7.364-.007 11.046.015.431 0 .547-.226.674-.54 1.325-3.204 2.675-6.398 3.976-9.612 1.767-4.366 2.1-8.847.495-13.293-2.425-6.718-5.03-13.372-7.568-20.048-.5-1.318-1.705-1.866-2.886-1.367-1.151.485-1.538 1.647-.977 2.977 1.377 3.258 2.749 6.519 4.143 9.77a9.51 9.51 0 01.776 3.844c-.012 4.561-.005 9.126-.005 13.687v.772h-2.5v-.794c0-4.608-.006-9.219.004-13.827 0-.737-.167-1.389-.784-1.832-.586-.422-1.247-.498-1.906-.18-.742.36-1.066.993-1.066 1.804 0 3.033-.014 6.068.005 9.101.01 1.556-.26 3.038-.955 4.434-2.35 4.729-3.077 9.758-2.749 15.055h.002zm-25.066.037c0-.922-.01-1.733 0-2.543.056-4.283-.797-8.372-2.666-12.23-.774-1.597-1.122-3.258-1.1-5.032.04-2.896.017-5.792.007-8.687-.005-1.353-.899-2.222-2.114-2.088-1.007.11-1.629.914-1.632 2.142-.004 4.632 0 9.265 0 13.898v.725h-2.5v-.816c0-4.425.016-8.849-.01-13.273-.01-1.58.284-3.063.916-4.516 1.389-3.177 2.717-6.381 4.074-9.574.333-.784.333-1.538-.213-2.224-.5-.63-1.179-.9-1.97-.784-.946.14-1.477.764-1.806 1.63-2.378 6.268-4.772 12.53-7.153 18.8-1.737 4.576-1.857 9.186-.093 13.765 1.347 3.494 2.849 6.928 4.255 10.4.167.407.421.409.757.407 3.543-.005 7.088-.003 10.63-.003h.613l.005.002zm1.2 9.975v-7.418H41.157v7.418h14.922zm37.537-7.423h-14.92v7.416h14.92v-7.416zM37.225 44.31l2.322.882-.722 1.93c-.782-.296-1.524-.58-2.335-.886.25-.654.482-1.267.735-1.926z" fill="#000"/><path d="M56.079 94.75H41.157v-7.418h14.922v7.418zm37.537-7.423v7.416h-14.92v-7.416h14.92zM67.113 67.43v3.47l-2.452.213c-.03-.835-.145-1.639-.064-2.42.123-1.179-.162-1.835-1.39-2.355-2.54-1.078-3.676-3.349-4.147-5.943-1.004-5.547 1.722-10.03 6.167-12.57 3.932-2.247 8.123-2.215 12.369-.997.977.279 1.325 1.097.784 1.942-1.122 1.752-1.355 3.692-1.45 5.701-.096 2.007-.113 4.045-.508 6-.903 4.495-4.167 7.183-8.88 6.955-.113-.005-.228 0-.429 0v.002zm8.403-18.612c-.693-.096-1.284-.208-1.879-.257-3.26-.272-6.255.392-8.81 2.557-3.123 2.649-4.23 6.319-2.976 10.037.485 1.44 1.315 2.614 2.91 3.168.439-3.937 1.377-7.68 2.989-11.304l2.264 1.002c-1.492 3.514-2.45 7.083-2.774 10.853 1.431.13 2.757-.007 3.979-.74 1.92-1.148 2.71-2.99 2.952-5.08.179-1.534.186-3.092.223-4.64.047-1.89.407-3.712 1.117-5.596h.005z" fill="#22B573"/><path d="M76.68 38.134l-1.09 2.242c-4.557-2.105-9.239-2.445-14.063-.963-.22-.664-.419-1.25-.61-1.837-.049-.15-.073-.307-.122-.53 5.45-1.695 10.71-1.315 15.887 1.086l-.002.002zm-19.859 3.589c-.478-.7-.919-1.347-1.409-2.068l2.654-1.55c.384.789.734 1.504 1.097 2.246l-2.342 1.372z" fill="#000"/></g><defs><clipPath id="clip0_4_107"><path fill="#fff" transform="translate(30 31)" d="M0 0h71.151v70H0z"/></clipPath><filter id="filter0_d_4_107" x="0" y="0" width="132" height="132" filterUnits="userSpaceOnUse" color-interpolation-filters="sRGB"><feFlood flood-opacity="0" result="BackgroundImageFix"/><feColorMatrix in="SourceAlpha" values="0 0 0 0 0 0 0 0 0 0 0 0 0 0 0 0 0 0 127 0" result="hardAlpha"/><feMorphology radius="1" operator="dilate" in="SourceAlpha" result="effect1_dropShadow_4_107"/><feOffset/><feGaussianBlur stdDeviation="5"/><feComposite in2="hardAlpha" operator="out"/><feColorMatrix values="0 0 0 0 0.545098 0 0 0 0 0.823529 0 0 0 0 0.627451 0 0 0 0.4 0"/><feBlend in2="BackgroundImageFix" result="effect1_dropShadow_4_107"/><feBlend in="SourceGraphic" in2="effect1_dropShadow_4_107" result="shape"/></filter></defs></svg>