<svg width="132" height="132" fill="none" xmlns="http://www.w3.org/2000/svg"><g filter="url(#filter0_d_4_109)"><circle cx="66" cy="66" r="55" fill="#fff"/></g><g clip-path="url(#clip0_4_109)"><path d="M31 91.97V58.614c.407-.652 1.015-.806 1.75-.802 5.75.016 11.5.01 17.25.01h.866v-.81c0-2.3.013-4.6-.01-6.9-.005-.639.198-1.132.655-1.576a129.625 129.625 0 003.572-3.583c.246-.26.42-.696.43-1.055.048-1.501-.005-3.006.032-4.51.014-.631-.128-1.104-.621-1.55-.76-.688-.727-1.302.014-2.049a438.49 438.49 0 013.925-3.91c.323-.32.69-.59 1.037-.88h41.228v14.354c-.376.636-.935.828-1.664.826-6.775-.019-13.552-.011-20.328-.011h-.721l-.099.17c.784.75 1.615 1.457 2.327 2.268.327.374.564.942.593 1.439.08 1.362.028 2.73.028 4.098v3.676h.867c5.75 0 11.5.008 17.25-.009.733-.002 1.341.152 1.749.802v33.354c-.241.3-.457.625-.727.895-2.478 2.486-4.971 4.957-7.446 7.45-.464.467-.964.686-1.634.686-16.84-.011-33.678-.011-50.518 0-.668 0-1.169-.219-1.634-.686-2.44-2.46-4.902-4.898-7.347-7.353-.302-.303-.55-.66-.824-.992v.002zm2.372-31.777c-.014.19-.036.343-.038.496 0 10.003-.006 20.003.015 30.006 0 .292.182.652.394.867a549.121 549.121 0 006.684 6.666c.241.235.66.416.995.416 16.437.02 32.871.02 49.307 0 .318 0 .712-.164.94-.387a469.495 469.495 0 006.681-6.671c.249-.254.426-.7.428-1.056.021-9.865.018-19.73.018-29.594v-.745H33.372v.002zm65.402-26.817h-17.47v10.413h17.47V33.376zM78.875 43.822V33.328h-.873c-5.406 0-10.81.015-16.215-.016-.765-.005-1.32.177-1.845.752-.865.95-1.82 1.82-2.682 2.667l4.173 4.153 1.864-1.828c-.535-.483-1.128-.897-1.55-1.445-.23-.3-.313-.875-.192-1.234.1-.302.59-.64.917-.653.369-.012.825.243 1.114.52 1.254 1.192 2.449 2.448 3.701 3.642.247.236.656.413.994.419 2.257.036 4.514.013 6.773.022 1.102.003 1.525.438 1.536 1.537.008.649 0 1.297 0 1.96h2.28l.005-.002zM57.91 50.853v6.923h16.299v-6.923h-16.3zm-2.427 6.936V47.774c-.729.767-1.344 1.372-1.901 2.025-.2.232-.362.581-.366.88-.033 1.958-.016 3.916-.016 5.874v1.236h2.284-.001zm23.447 0c0-2.51 0-4.942-.004-7.374 0-.108-.016-.248-.084-.316-.701-.721-1.413-1.432-2.206-2.226v9.918h2.292l.002-.002zm-18.721-9.328c0-1.719 0-3.397-.004-5.074 0-.107-.016-.248-.084-.317-.7-.72-1.411-1.428-2.211-2.232v7.623h2.299zm2.343-.013h2.281v-7.652c-.8.833-1.461 1.512-2.106 2.208a.678.678 0 00-.166.422c-.01 1.654-.007 3.31-.007 5.022h-.002zm4.688.016h2.294V42.66c-.672 0-1.304-.02-1.932.016-.128.008-.346.232-.347.358-.024 1.792-.017 3.585-.017 5.43l.002.001zm4.725-5.761v5.74h2.253v-5.74h-2.254z" fill="#000"/><path d="M98.774 33.376v10.413h-17.47V33.376h17.47zM78.875 43.822h-2.28c0-.663.006-1.311 0-1.96-.012-1.099-.436-1.532-1.535-1.537-2.257-.01-4.516.014-6.774-.022-.337-.006-.746-.185-.993-.418-1.253-1.195-2.445-2.451-3.702-3.644-.288-.274-.745-.531-1.114-.518-.327.01-.816.35-.917.652-.12.36-.04.933.192 1.234.42.548 1.015.963 1.55 1.445l-1.864 1.828a7190.176 7190.176 0 01-4.173-4.153c.862-.847 1.817-1.717 2.683-2.666.524-.576 1.077-.757 1.844-.753 5.404.033 10.81.017 16.215.017h.873V43.82l-.005.002zm-18.668 4.637h-2.299v-7.623c.8.804 1.512 1.512 2.212 2.232.067.07.084.21.084.318.005 1.676.003 3.354.003 5.073z" fill="#22B573"/><path d="M62.552 48.448c0-1.711-.004-3.368.007-5.022 0-.143.07-.318.166-.422.645-.694 1.306-1.373 2.106-2.208v7.652h-2.28.001zm4.688.015c0-1.845-.007-3.636.017-5.43 0-.126.219-.35.346-.358.629-.038 1.26-.016 1.933-.016v5.805h-2.294l-.002-.001zm4.725-5.763h2.253v5.74h-2.254V42.7zm5.303 28.863c.308-.214.553-.376.789-.55.455-.338.931-.488 1.457-.172.528.32.608.819.523 1.372-.11.698-.194 1.4-.357 2.086-.137.578-.01 1.035.316 1.526 1.474 2.22 2.913 4.462 4.363 6.699.532.82.523 1.176-.053 1.981-1.775 2.484-3.563 4.959-5.32 7.455-.438.623-.964.88-1.725.87-2.281-.032-4.564-.012-6.847-.012h-.842c0 .422.088.808-.022 1.125-.139.398-.363.85-.692 1.078-.418.29-.922.115-1.311-.241-.1-.093-.216-.177-.29-.289-1.003-1.474-2.397-1.797-4.122-1.71-2.754.136-5.521.017-8.282.047-.767.009-1.282-.267-1.717-.886-1.744-2.478-3.52-4.933-5.282-7.398-.62-.87-.622-1.17-.027-2.093l4.867-7.524c-.365-.272-.716-.546-1.081-.798-.48-.333-.837-.735-.703-1.36.139-.658.646-.889 1.25-.983.563-.088 1.124-.256 1.686-.267.904-.018 1.403-.475 1.861-1.21 1.456-2.34 2.999-4.625 4.476-6.952.4-.63.904-.883 1.64-.878 2.83.022 5.66.024 8.49 0 .771-.007 1.264.287 1.675.937 1.584 2.502 3.209 4.976 4.82 7.46.135.208.277.413.464.689l-.004-.002zm-7.705 14.26c1.057 0 2.034-.129 2.964.027 1.78.299 2.864-.424 3.588-1.975.161-.343.176-.542-.021-.845a75.027 75.027 0 01-1.916-3.072c-.267-.458-.588-.68-1.121-.732-.793-.079-1.576-.25-2.362-.388-.535-.093-.948-.348-1.07-.91-.119-.55.093-.978.55-1.296.425-.297.845-.604 1.242-.887-.013-.112-.004-.163-.026-.197-.79-1.279-1.576-2.56-2.381-3.828-.473-.743-.828-1.75-1.514-2.113-.698-.369-1.739-.126-2.626-.082-.26.012-.601.2-.742.416-.809 1.238-1.508 2.553-2.365 3.755-.75 1.054-1.081 2.096-.657 3.356.15.448.155.941.242 1.41.101.543-.021 1.008-.493 1.319-.473.312-.95.24-1.404-.073-.309-.214-.623-.424-.959-.654-.535.866-1.03 1.655-1.512 2.454-.396.66-1.092 1.34-1.072 1.991.02.66.73 1.317 1.193 1.936.146.195.46.37.7.373 2.44.027 4.884.025 7.326.001.26-.001.57-.137.767-.312.577-.517 1.063-1.143 1.676-1.605.313-.236.888-.384 1.222-.254.336.13.601.62.75 1.01.12.318.023.718.023 1.178l-.002-.004zm-14.49-12.15c.569.742.346 1.37-.09 2.032-1.593 2.412-3.146 4.85-4.733 7.266-.237.36-.239.605.017.957a463.389 463.389 0 014.374 6.11c.237.337.495.46.902.452 1.276-.024 2.555-.01 3.831-.01h3.817c-.809-.808-.765-1.555.017-2.33-2.157 0-4.142-.021-6.126.011-.723.013-1.2-.253-1.576-.856a61.533 61.533 0 00-1.93-2.898c-.444-.625-.427-1.18-.02-1.821 1.123-1.766 2.22-3.55 3.3-5.344.387-.644.807-1.165 1.742-.999-.177-1.06-.34-2.034-.511-3.068l-3.014.495v.002zm3.11-2.93c1.35-.123 1.536-.039 2.108.918.742-1.198 1.496-2.361 2.19-3.559.385-.667.884-.972 1.66-.948a60.7 60.7 0 003.692 0c.77-.023 1.272.26 1.673.924a410.728 410.728 0 004.115 6.604c.46.727.948 1.426.164 2.303 1.067.177 2.004.33 2.999.497l.522-3.121c-.858.142-1.265-.35-1.641-.934a836.002 836.002 0 00-5.242-8.074c-.159-.24-.504-.502-.769-.505a324.475 324.475 0 00-7.182-.013c-.2 0-.488.084-.583.23-1.233 1.854-2.438 3.724-3.707 5.678h.002zm18.754 9.237c.576.924 1.11 1.812 1.675 2.679.384.59.373 1.123-.031 1.704a94.553 94.553 0 00-2.005 3.011c-.353.552-.807.797-1.474.788a256.266 256.266 0 00-6.156-.002c-.667.007-1.271-.059-1.615-.629l-1.868 1.757c.61.627 1.209 1.24 1.85 1.9.374-.662.992-.713 1.656-.709 2.532.013 5.063-.005 7.594.017.44.003.701-.136.951-.492 1.295-1.844 2.614-3.67 3.925-5.504.496-.693.507-1.403.035-2.13l-2.442-3.749c-.398 1.233-.488 1.291-2.095 1.363v-.004z" fill="#22B573"/></g><defs><clipPath id="clip0_4_109"><path fill="#fff" transform="translate(31 31)" d="M0 0h70.128v70H0z"/></clipPath><filter id="filter0_d_4_109" x="0" y="0" width="132" height="132" filterUnits="userSpaceOnUse" color-interpolation-filters="sRGB"><feFlood flood-opacity="0" result="BackgroundImageFix"/><feColorMatrix in="SourceAlpha" values="0 0 0 0 0 0 0 0 0 0 0 0 0 0 0 0 0 0 127 0" result="hardAlpha"/><feMorphology radius="1" operator="dilate" in="SourceAlpha" result="effect1_dropShadow_4_109"/><feOffset/><feGaussianBlur stdDeviation="5"/><feComposite in2="hardAlpha" operator="out"/><feColorMatrix values="0 0 0 0 0.545098 0 0 0 0 0.823529 0 0 0 0 0.627451 0 0 0 0.4 0"/><feBlend in2="BackgroundImageFix" result="effect1_dropShadow_4_109"/><feBlend in="SourceGraphic" in2="effect1_dropShadow_4_109" result="shape"/></filter></defs></svg>