<svg width="132" height="132" fill="none" xmlns="http://www.w3.org/2000/svg"><g filter="url(#filter0_d_4_108)"><circle cx="66" cy="66" r="55" fill="#fff"/></g><g clip-path="url(#clip0_4_108)"><path d="M67.045 31c.675.085 1.351.16 2.022.258 8.457 1.244 14.762 5.67 18.993 13.032 1.895 3.3 2.868 6.913 3.079 10.732.339 6.177-1.336 11.743-4.974 16.728a15.555 15.555 0 01-1.259 1.53c-.339.36-.333.635-.088 1.057 3.408 5.867 6.795 11.745 10.19 17.62.27.465.51.895.159 1.45-.528.842-1 1.05-1.937.682-2.161-.847-4.313-1.712-6.47-2.57-.569-.226-1.14-.45-1.814-.716-.128.822-.26 1.594-.37 2.369-.293 2.052-.578 4.103-.868 6.155-.036.249-.07.5-.14.739-.275.955-1.41 1.234-2.102.506-.2-.211-.347-.476-.496-.73-3.4-5.871-6.801-11.742-10.185-17.624-.247-.43-.461-.607-.996-.509-2.828.509-5.666.488-8.494-.01-.488-.086-.676.088-.895.466-3.385 5.88-6.786 11.751-10.181 17.625-.373.645-.737 1.332-1.634 1.195-.96-.147-1.026-.942-1.134-1.709-.394-2.794-.808-5.584-1.224-8.457-.287.103-.535.186-.778.282-2.431.969-4.86 1.94-7.292 2.907-.21.083-.427.16-.648.208-.98.21-1.73-.571-1.45-1.53.086-.302.248-.586.406-.86 3.333-5.778 6.66-11.56 10.023-17.321.34-.583.262-.916-.148-1.402-4.824-5.694-6.896-12.3-5.92-19.67 1.268-9.593 6.553-16.351 15.308-20.377 2.536-1.167 5.253-1.783 8.054-1.95.177-.012.353-.07.528-.106h2.735zm21.597 25.427c-.047-12.663-10.223-22.874-22.925-22.899-12.689-.024-22.965 10.368-22.944 23.05.02 12.815 10.172 22.895 22.938 22.934 12.597.04 22.98-10.475 22.933-23.085h-.002zm2.41 33.96l.098-.119-8.426-14.57c-1.563 1.049-2.997 2.147-4.557 3.021-1.575.882-3.275 1.54-4.966 2.318 2.796 4.874 5.623 9.798 8.45 14.723.467-2.25.798-4.43 1.124-6.613.187-1.247.903-1.667 2.084-1.202 1.694.666 3.384 1.338 5.076 2.007.37.147.744.29 1.115.435h.002zM48.67 75.701c-2.78 4.81-5.607 9.695-8.521 14.731.388-.133.6-.196.806-.277 1.882-.744 3.759-1.497 5.643-2.236 1.059-.415 1.812.004 1.991 1.112.24 1.482.454 2.969.682 4.452.115.744.236 1.486.352 2.23l.148.006c2.82-4.917 5.638-9.835 8.42-14.684-1.715-.788-3.396-1.438-4.952-2.31-1.56-.874-2.996-1.97-4.569-3.024z" fill="#000"/><path d="M88.642 56.427c.047 12.61-10.336 23.125-22.932 23.085-12.767-.04-22.918-10.119-22.939-22.934-.02-12.682 10.255-23.074 22.944-23.05 12.703.025 22.878 10.236 22.925 22.9h.002zM65.717 76.402c10.995-.023 19.813-8.842 19.865-19.867.051-10.95-8.934-19.94-19.903-19.907a19.862 19.862 0 00-19.852 19.876c-.019 11.007 8.893 19.92 19.892 19.898h-.002z" fill="#22B573"/><path d="M65.717 76.402c-10.999.022-19.91-8.893-19.892-19.898a19.864 19.864 0 0119.853-19.876c10.967-.032 19.954 8.956 19.903 19.907-.051 11.025-8.87 19.846-19.866 19.867h.002zM48.32 56.536c.015 9.536 7.815 17.334 17.37 17.364 9.628.03 17.381-7.76 17.368-17.458-.011-9.556-7.806-17.35-17.358-17.36-9.492-.007-17.395 7.929-17.382 17.454h.002z" fill="#000"/><path d="M65.875 64.016c-1.394 1.012-2.762 2.03-4.154 3.013-1.513 1.068-3.291.67-4.21-.918-.385-.665-.447-1.375-.212-2.106.47-1.449.925-2.903 1.43-4.341.164-.464.117-.72-.31-1.01a86.175 86.175 0 01-3.724-2.66c-.957-.725-1.313-1.74-1.053-2.91.238-1.064.93-1.751 1.988-2.034.258-.07.539-.083.808-.085 1.481-.01 2.962-.026 4.443.006.469.01.68-.128.814-.58.44-1.483.893-2.962 1.403-4.42.556-1.589 2.135-2.29 3.71-1.694.927.35 1.426 1.098 1.718 1.999.443 1.362.88 2.728 1.285 4.1.13.437.319.61.805.599 1.526-.036 3.052-.021 4.578-.004 1.313.015 2.31.79 2.726 2.084.42 1.303.117 2.234-1.046 3.086a146.66 146.66 0 01-3.613 2.577c-.349.24-.409.452-.273.842.486 1.396.925 2.808 1.4 4.207.42 1.24.09 2.452-.907 3.252-.951.763-2.215.835-3.306.098-1.225-.829-2.402-1.727-3.602-2.596-.22-.16-.441-.317-.7-.5l.002-.005zm-6.453-10.601c-.889 0-1.776-.021-2.663.013-.262.01-.517.167-.777.258.151.207.262.463.456.614 1.327 1.04 2.668 2.057 4.006 3.084.896.688.97.918.629 1.975-.53 1.645-1.074 3.285-1.586 4.934-.072.23 0 .503.005.756.245-.07.53-.081.726-.22 1.428-1.018 2.835-2.064 4.252-3.096.89-.647 1.33-.647 2.214-.002 1.343.978 2.675 1.972 4.032 2.933.273.194.627.272.943.403-.017-.333.034-.687-.062-.996-.482-1.564-1.004-3.116-1.51-4.673-.334-1.03-.22-1.385.672-2.036 1.434-1.05 2.873-2.088 4.301-3.145.185-.137.31-.358.46-.539-.236-.088-.471-.25-.707-.252-1.709-.023-3.417-.011-5.124-.011-1.214 0-1.566-.255-1.937-1.4-.505-1.558-.997-3.118-1.519-4.67-.094-.28-.303-.519-.461-.777-.17.266-.4.51-.498.8-.53 1.574-1.026 3.158-1.539 4.735-.343 1.053-.691 1.308-1.784 1.31-.842.002-1.686 0-2.529 0v.002z" fill="#000"/><path d="M59.42 53.414c.843 0 1.687.002 2.529 0 1.093-.003 1.441-.256 1.784-1.309.513-1.579 1.008-3.163 1.54-4.734.098-.29.327-.536.497-.801.156.258.367.497.462.776.521 1.552 1.013 3.112 1.518 4.67.371 1.146.722 1.4 1.937 1.4 1.709 0 3.418-.009 5.124.012.238.004.471.164.707.252-.153.181-.275.401-.46.539-1.428 1.057-2.867 2.095-4.301 3.145-.891.651-1.006 1.006-.673 2.036.505 1.556 1.027 3.109 1.511 4.673.096.309.046.663.063.996-.317-.132-.671-.209-.944-.403-1.357-.96-2.689-1.956-4.032-2.933-.884-.645-1.325-.645-2.214.002-1.419 1.03-2.826 2.076-4.252 3.095-.194.14-.48.149-.726.22-.005-.252-.077-.525-.005-.755.512-1.65 1.057-3.29 1.586-4.934.341-1.057.266-1.285-.63-1.975-1.335-1.027-2.678-2.044-4.005-3.084-.194-.153-.305-.407-.456-.614.259-.09.515-.249.777-.258.887-.032 1.776-.014 2.664-.014v-.002z" fill="#22B573"/></g><defs><clipPath id="clip0_4_108"><path fill="#fff" transform="translate(36 31)" d="M0 0h59.34v70H0z"/></clipPath><filter id="filter0_d_4_108" x="0" y="0" width="132" height="132" filterUnits="userSpaceOnUse" color-interpolation-filters="sRGB"><feFlood flood-opacity="0" result="BackgroundImageFix"/><feColorMatrix in="SourceAlpha" values="0 0 0 0 0 0 0 0 0 0 0 0 0 0 0 0 0 0 127 0" result="hardAlpha"/><feMorphology radius="1" operator="dilate" in="SourceAlpha" result="effect1_dropShadow_4_108"/><feOffset/><feGaussianBlur stdDeviation="5"/><feComposite in2="hardAlpha" operator="out"/><feColorMatrix values="0 0 0 0 0.545098 0 0 0 0 0.823529 0 0 0 0 0.627451 0 0 0 0.4 0"/><feBlend in2="BackgroundImageFix" result="effect1_dropShadow_4_108"/><feBlend in="SourceGraphic" in2="effect1_dropShadow_4_108" result="shape"/></filter></defs></svg>