<svg width="132" height="132" fill="none" xmlns="http://www.w3.org/2000/svg"><g filter="url(#filter0_d_4_106)"><circle cx="66" cy="66" r="55" fill="#fff"/></g><path d="M56.74 101c-1.17-.137-2.342-.253-3.509-.414-4.185-.576-8.165-1.739-11.716-4.132-3.128-2.11-5.361-4.96-6.861-8.391-2.082-4.762-2.757-9.79-2.642-14.94.039-1.705.183-3.41.316-5.112.094-1.224.346-1.519 1.558-1.655 6.652-.748 13.202-.489 19.515 2.054 5.707 2.3 9.46 6.444 11.526 12.193.275.764.508 1.543.826 2.51.127-.41.204-.65.277-.893 1.314-4.375 3.467-8.21 7.156-11.03 3.003-2.293 6.444-3.602 10.107-4.375 4.285-.904 8.611-1.006 12.959-.614.543.049 1.083.136 1.624.186.753.067 1.152.488 1.234 1.217.115 1.017.26 2.036.31 3.057.222 4.386.046 8.745-1.075 13.02-1.286 4.9-3.53 9.213-7.706 12.295-2.809 2.075-5.963 3.383-9.37 4.043-1.958.379-3.95.576-5.926.857-.2.029-.396.08-.594.12h-4.913c-.693-.078-1.394-.109-2.076-.242-2.06-.399-4.08.035-6.11.242h-4.913l.003.004zm.746-11.092c.054-.154.093-.212.093-.268.003-5.218.007-10.435 0-15.65 0-.162-.057-.385-.17-.48a17.102 17.102 0 00-4.477-2.723v.802c0 3.85.08 7.702-.038 11.548-.05 1.588.324 2.758 1.566 3.774 1.079.882 1.994 1.963 3.026 2.998v-.001zm16.42-.104l.168.042c1.347-1.355 2.687-2.718 4.05-4.058.318-.312.45-.624.447-1.07-.014-4.419-.009-8.84-.009-13.258v-.673c-1.535.638-2.854 1.455-4.109 2.399-.406.306-.557.622-.556 1.134.02 4.944.013 9.887.013 14.831v.653h-.003zm-17.995 1.864c-.25-.273-.39-.439-.542-.592-1.203-1.208-2.422-2.402-3.607-3.63-.332-.342-.671-.46-1.136-.459-4.362.015-8.726.01-13.088.01h-.764c.645 1.547 1.462 2.869 2.408 4.121.3.4.618.567 1.134.565 4.93-.022 9.862-.013 14.793-.013h.804l-.002-.002zm38.788-4.612c-.17-.029-.257-.056-.347-.056-4.59-.004-9.18-.01-13.77.011-.253 0-.558.175-.75.36-1.093 1.062-2.156 2.156-3.238 3.226-.314.31-.666.58-1.11.96.313.079.373.106.435.106 5.18.002 10.362.005 15.542-.007.199 0 .461-.099.584-.245a17.104 17.104 0 002.656-4.355h-.002zm-30.275 9.795c.036-.49.087-.804.078-1.116-.084-2.592-.044-5.197-.302-7.772-.367-3.65-1.351-7.15-3.264-10.33-.27-.447-.58-.87-.913-1.368-.07.173-.102.213-.102.251-.004 5.148-.007 10.298 0 15.446 0 .186.064.425.188.55 1.383 1.413 2.783 2.808 4.315 4.34zm2.758-.11c1.298-1.3 2.585-2.615 3.9-3.897.353-.342.51-.683.508-1.186-.02-4.875-.011-9.751-.011-14.626v-.649a70.62 70.62 0 01-.217-.027c-4.16 6.187-4.618 13.17-4.178 20.388l-.002-.002zm-24.87-2.704c3.234 3.179 15.037 5.712 20.393 4.378-1.346-1.343-2.643-2.674-3.987-3.957-.259-.248-.695-.436-1.048-.438-4.887-.03-9.775-.02-14.662-.018-.215 0-.43.02-.694.033l-.002.002zm26.496 4.345c.033.057.066.111.096.168 1.93 0 3.861.068 5.786-.015 3.604-.15 7.126-.772 10.48-2.167 1.417-.589 2.77-1.29 4.158-2.366h-.93c-4.294 0-8.593.086-12.884-.042-1.69-.051-2.927.37-3.992 1.684-.806.996-1.805 1.832-2.716 2.74l.002-.002zm-22.85-29.62c0 2.574.105 4.993-.037 7.395-.095 1.597.336 2.757 1.572 3.77 1.077.884 1.996 1.96 3.075 3.04v-13.15c-1.504-.344-3.003-.687-4.61-1.053v-.002zm34.976 1.05v13.154c1.467-1.473 2.856-2.844 4.205-4.25.22-.227.37-.62.376-.94.034-1.981.016-3.963.016-5.944v-3.065l-4.599 1.045h.002zm-46.202 10.17c.348 1.465.682 2.783.964 4.114.097.458.314.569.746.567 3.932-.013 7.866-.007 11.798-.01.182 0 .364-.037.676-.072-1.53-1.522-2.938-2.944-4.378-4.335-.18-.175-.524-.251-.792-.253-2.16-.02-4.318-.011-6.478-.011h-2.536zm62.005.11c-.175-.061-.237-.101-.3-.101a1565.38 1565.38 0 00-8.935 0c-.179 0-.401.1-.53.23-1.408 1.392-2.8 2.8-4.195 4.205-.037.037-.031.115-.057.228h2.55c3.253 0 6.505.007 9.755-.015.237 0 .638-.165.682-.33.379-1.396.694-2.81 1.028-4.218h.002zM36.309 68.455l7.286 7.311v-7.311H36.31zm51.574 7.271l7.251-7.262h-7.251v7.262zm-53.424-5.463v7.319h7.29l-7.29-7.32zm55.283 7.332h7.301v-7.332l-7.3 7.332z" fill="#22B573"/><path d="M67.11 31c1.047.19 2.117.295 3.136.583 7.37 2.077 12.05 6.867 13.716 14.332 2.162 9.694-4.029 19.387-13.73 21.846-10.041 2.545-20.2-3.611-22.587-13.936-1.582-6.847.341-12.846 5.393-17.745 3.037-2.949 6.74-4.555 10.954-4.98.13-.013.259-.065.39-.1h2.729zm-9.528 4.658h.76c1.637 0 3.274-.017 4.911.005 1.909.026 3.384 1.265 3.595 2.986.264 2.166-1.196 3.934-3.38 3.983-2.273.053-4.548.006-6.82.026-.86.007-1.392.506-1.37 1.199.02.676.529 1.1 1.36 1.125.886.029 1.78-.013 2.654.09 2.013.241 3.363 2.318 2.838 4.28-.448 1.682-1.78 2.635-3.746 2.643-2.661.01-5.32.003-7.982.003h-.764c.567 3.568 2.044 6.554 4.483 9.056a.993.993 0 00.645.267c4.344.014 8.686.014 13.03.007.882 0 1.404-.441 1.422-1.141.018-.733-.51-1.165-1.433-1.187-.862-.02-1.735.027-2.585-.09-2.122-.291-3.416-2.437-2.762-4.48.505-1.579 1.776-2.426 3.69-2.43 4.957-.007 9.915-.002 14.871-.002h.88c.052-.806.101-1.538.154-2.34-.95 0-1.788.012-2.625-.002-1.876-.033-2.893-.926-3.165-2.786-.072-.494-.313-.722-.814-.707-.545.015-1.094.026-1.637-.01-2.283-.145-3.796-2.148-3.276-4.32.355-1.485 1.635-2.582 3.177-2.632 1.442-.045 2.888-.009 4.404-.009-4.542-5.899-13.967-7.76-20.515-3.534zm23.698 18.74c-.11-.025-.175-.054-.24-.054-5.05-.003-10.098-.005-15.147.002-.24 0-.505.057-.716.168-.478.253-.64.689-.54 1.214.124.645.592.9 1.18.93.862.041 1.73-.008 2.59.049 1.881.124 3.332 1.908 3.115 3.777-.226 1.94-1.64 3.17-3.695 3.179-3.16.013-6.322.004-9.483.004h-.758c8.318 5.29 20.593 1.2 23.692-9.27h.002zm-31.788-4.746c3.137 0 6.182.015 9.226-.01.745-.006 1.177-.49 1.177-1.148 0-.652-.428-1.108-1.179-1.153-.86-.051-1.728 0-2.588-.062-1.76-.124-3.098-1.548-3.183-3.33-.082-1.692 1.187-3.26 2.882-3.54a7.272 7.272 0 011.152-.087c2.114-.009 4.227.004 6.342-.01.749-.006 1.201-.438 1.228-1.094.03-.65-.404-1.121-1.123-1.216-.11-.015-.226-.013-.34-.013-2.751 0-5.502-.01-8.25.017-.273.001-.608.167-.803.366a15.332 15.332 0 00-3.16 4.66c-.916 2.08-1.426 4.249-1.38 6.62zm32.304-2.35c-.159-1.684-.924-4.052-1.79-5.452a.807.807 0 00-.576-.326 236.338 236.338 0 00-5.45-.006c-.726.008-1.211.467-1.242 1.1-.033.645.465 1.159 1.212 1.213.385.03.771.01 1.158.01 2.133.001 3.04.767 3.465 2.854.046.228.325.567.514.58.897.062 1.801.027 2.707.027h.002zm-41.714.073v2.235H37.83v-2.235h2.253zm4.641 2.239h-2.238v-2.242h2.238v2.242zm42.019 0v-2.242h2.235v2.242h-2.235zm6.916-2.241v2.24H91.4v-2.24h2.257zm-55.825 11.58v-2.228h2.248v2.228h-2.248zm53.559-.009v-2.212h2.257v2.212h-2.257zm-51.31 2.435v2.233H37.84v-2.233h2.242zm51.323 2.242V61.39h2.24v2.231h-2.24zM37.83 54.295v-2.25h2.236v2.25h-2.237zm55.837-2.257v2.237h-2.25v-2.237h2.25z" fill="#000"/><defs><filter id="filter0_d_4_106" x="0" y="0" width="132" height="132" filterUnits="userSpaceOnUse" color-interpolation-filters="sRGB"><feFlood flood-opacity="0" result="BackgroundImageFix"/><feColorMatrix in="SourceAlpha" values="0 0 0 0 0 0 0 0 0 0 0 0 0 0 0 0 0 0 127 0" result="hardAlpha"/><feMorphology radius="1" operator="dilate" in="SourceAlpha" result="effect1_dropShadow_4_106"/><feOffset/><feGaussianBlur stdDeviation="5"/><feComposite in2="hardAlpha" operator="out"/><feColorMatrix values="0 0 0 0 0.545098 0 0 0 0 0.823529 0 0 0 0 0.627451 0 0 0 0.4 0"/><feBlend in2="BackgroundImageFix" result="effect1_dropShadow_4_106"/><feBlend in="SourceGraphic" in2="effect1_dropShadow_4_106" result="shape"/></filter></defs></svg>