<svg width="79" height="75" viewBox="0 0 79 75" fill="none" xmlns="http://www.w3.org/2000/svg">
<path d="M36.712 74.7692C38.82 74.6578 40.5661 74.2593 42.0249 73.7212C42.0249 73.7212 41.9943 73.7412 41.979 73.7512C42.1924 73.6773 42.3706 73.5828 42.5588 73.5035C42.8487 73.3797 43.1233 73.2658 43.3879 73.1367C43.6372 73.0175 43.826 72.8725 44.05 72.748C44.5646 72.4339 45.0286 72.1091 45.432 71.7585C45.575 71.6434 45.7179 71.5282 45.8455 71.4231C46.0602 71.2175 46.2344 71.0166 46.4238 70.8057C46.5467 70.66 46.6796 70.5296 46.8026 70.3839C46.9667 70.1677 47.1156 69.9615 47.2644 69.7552C47.3621 69.6042 47.4751 69.4432 47.5575 69.3022C47.6811 69.0907 47.8047 68.8791 47.9183 68.6523C47.9907 68.496 48.0631 68.3397 48.1355 68.1834C48.2338 67.9665 48.3321 67.7497 48.4051 67.5275C48.4622 67.3812 48.5094 67.2196 48.5665 67.0733C48.6395 66.8511 48.7126 66.629 48.7703 66.4168C48.7969 66.2904 48.8234 66.1641 48.8499 66.0377C48.9554 65.5981 49.0357 65.1531 49.0953 64.7435C49.1165 64.6424 49.1278 64.526 49.1491 64.4249C49.1762 64.2327 49.1881 64.0505 49.1999 63.8683C49.2012 63.7366 49.2277 63.6102 49.239 63.4938C49.2456 63.3369 49.2522 63.1799 49.2534 63.0482C49.2547 62.9166 49.2506 62.8102 49.2619 62.6938C49.2631 62.5621 49.2591 62.4557 49.255 62.3493C49.251 62.2429 49.257 62.1518 49.2376 62.0554C49.2283 61.9743 49.2342 61.8832 49.2248 61.802C49.2155 61.7209 49.2061 61.6398 49.2068 61.5739C49.2021 61.5334 49.1974 61.4928 49.1927 61.4523C49.1834 61.3711 49.1787 61.3306 49.1787 61.3306C59.4589 66.2208 61.0833 63.1975 65.4176 57.5108C65.7818 57.0332 66.146 56.5555 66.556 56.0479C68.8063 53.2485 70.4177 52.1092 71.8325 51.4036C72.6416 51.0062 73.3736 50.7245 74.1369 50.3571C74.2133 50.3072 74.315 50.2626 74.4015 50.2279C74.5085 50.1581 74.6102 50.1134 74.7273 50.0589C74.8343 49.989 74.9566 49.9091 75.0736 49.8545C75.1654 49.7946 75.2724 49.7248 75.3641 49.6649C75.5017 49.575 75.6393 49.4852 75.767 49.38C75.8587 49.3201 75.9657 49.2503 76.0475 49.1751C76.2057 49.05 76.3539 48.9096 76.5175 48.7592C76.6092 48.6993 76.6809 48.6088 76.7627 48.5337C76.778 48.5237 76.8086 48.5037 76.8239 48.4937C77.0539 48.2781 77.2892 48.0373 77.5198 47.7559C79.9517 45.0341 74.5067 41.3705 66.3338 40.1422C65.5145 40.0229 64.6645 39.9236 63.8093 39.8495C62.0835 39.7113 60.2554 39.6836 58.3854 39.7922C57.4478 39.8592 56.4949 39.9361 55.5566 40.0689C55.0799 40.1403 54.6031 40.2117 54.111 40.2931C52.6601 40.5425 51.2285 40.8883 49.7757 41.3352L49.7451 41.3552C49.0949 41.5617 48.4752 41.7482 47.8708 41.9247C47.7285 41.974 47.5762 42.008 47.4339 42.0573C46.8448 42.2238 46.2963 42.3856 45.763 42.5375C45.6666 42.5568 45.5801 42.5915 45.4837 42.6108C45.0216 42.7381 44.5748 42.8553 44.1432 42.9626C44.0468 42.9819 43.9351 43.0112 43.8234 43.0405C43.3613 43.1678 42.9198 43.2598 42.4883 43.367C42.3919 43.3864 42.2954 43.4057 42.209 43.4403C41.8333 43.533 41.4729 43.6156 41.1431 43.6783C41.0972 43.7082 41.0467 43.6976 40.9908 43.7122C40.6304 43.7949 40.2853 43.8675 39.9708 43.9202C39.8897 43.9296 39.8186 43.9542 39.7374 43.9636C39.4229 44.0162 39.1336 44.0742 38.8597 44.1223C38.8291 44.1422 38.8038 44.1369 38.7633 44.1416C38.5046 44.1796 38.2865 44.213 38.0684 44.2463C38.0125 44.261 37.9467 44.2603 37.8909 44.275C37.6728 44.3084 37.4599 44.3165 37.2724 44.3298C37.2318 44.3345 37.1913 44.3392 37.1507 44.3439C36.9885 44.3626 36.8315 44.356 36.6846 44.3647C36.6693 44.3747 36.6188 44.3641 36.6035 44.3741C36.4465 44.3675 36.2996 44.3762 36.1832 44.3649C36.1679 44.3749 36.1173 44.3643 36.0921 44.359C35.9757 44.3478 35.8593 44.3365 35.7429 44.3252C35.6418 44.304 35.5507 44.2981 35.4649 44.2669C35.4649 44.2669 35.4396 44.2616 35.4144 44.2563C35.3385 44.2403 35.278 44.2144 35.2175 44.1885C35.1569 44.1626 35.1217 44.142 35.0764 44.1061C35.0412 44.0855 34.996 44.0496 34.976 44.0191C34.8908 43.922 34.8815 43.8409 34.8868 43.8156C35.8696 43.7846 36.831 43.3531 37.4823 42.5136C38.0259 41.8097 38.2416 40.971 38.1734 40.1651C41.0808 40.1424 45.9371 39.6978 49.5409 37.3014C49.7855 37.1416 49.8392 36.8231 49.6795 36.5784C49.5198 36.3338 49.2012 36.2801 48.9566 36.4398C45.531 38.7417 40.6753 39.1205 37.9301 39.1244C37.7124 38.5905 37.3624 38.1212 36.8847 37.757C36.3066 37.3057 35.6149 37.0813 34.9212 37.0544C34.2217 34.4798 33.2316 29.4561 34.6533 25.3875C34.7369 25.1148 34.6131 24.8249 34.3304 24.7259C34.0578 24.6423 33.7678 24.7661 33.6689 25.0488C32.1588 29.3495 33.1277 34.4743 33.8613 37.2012C33.1857 37.4024 32.5642 37.7864 32.1076 38.3898C31.4563 39.2293 31.2793 40.2609 31.4979 41.2303C31.4673 41.2503 31.4215 41.2802 31.3809 41.2849C31.3809 41.2849 31.3809 41.2849 31.3709 41.2696C31.341 41.2237 31.2957 41.1879 31.2405 41.1367C31.2305 41.1214 31.2205 41.1061 31.2006 41.0755C31.1706 41.0297 31.1307 40.9685 31.0808 40.892C31.0608 40.8615 31.0408 40.8309 31.0109 40.785C30.971 40.7238 30.9516 40.6274 30.907 40.5257C30.8771 40.4798 30.8724 40.4393 30.8578 40.3834C30.8185 40.2564 30.7791 40.1294 30.7451 39.9771C30.7252 39.9466 30.7205 39.906 30.7158 39.8654C30.6672 39.6573 30.6238 39.4239 30.5705 39.1752C30.5558 39.1194 30.5565 39.0535 30.5418 38.9977C30.5085 38.7796 30.4751 38.5614 30.4371 38.3028C30.4177 38.2064 30.4037 38.0847 30.3997 37.9783C30.3716 37.7349 30.3489 37.4662 30.3161 37.1823C30.3021 37.0606 30.2881 36.9389 30.2894 36.8072C30.2626 36.4322 30.2411 36.0318 30.2149 35.591C30.2102 35.5504 30.2209 35.4998 30.2062 35.444C30.1807 34.9373 30.1757 34.3953 30.1661 33.8127C30.1574 33.6658 30.154 33.4935 30.1605 33.3366C30.1497 32.8857 30.1441 32.4095 30.1592 31.8981C30.1664 31.6754 30.1636 31.4373 30.1708 31.2145C30.1705 30.7131 30.1909 30.1764 30.2012 29.6244C30.1984 29.3864 30.2056 29.1636 30.2182 28.9155C30.231 28.1002 30.2645 27.2496 30.3139 26.3232C30.5092 21.8124 29.8166 17.4449 28.6277 13.6196C28.2347 12.3496 27.7905 11.1348 27.3051 9.99058C26.9929 9.2785 26.6753 8.59169 26.3524 7.93015C26.1587 7.53323 25.9597 7.16158 25.7607 6.78993C22.6636 1.24453 18.851 -1.52207 17.1346 1.05968C16.9186 1.39695 16.7233 1.69894 16.5685 1.99628C16.5067 2.10205 16.4755 2.18785 16.4137 2.29362C16.3207 2.48518 16.2177 2.66147 16.14 2.84306C16.0882 2.96411 16.0417 3.0599 16.0052 3.17098C15.948 3.31731 15.8756 3.47362 15.8338 3.60996C15.7973 3.72104 15.7608 3.83211 15.7243 3.94319C15.6824 4.07954 15.6459 4.19061 15.6194 4.31698C15.5928 4.44335 15.5563 4.55441 15.5298 4.68078C15.5086 4.78187 15.4873 4.88297 15.4814 4.97408C15.3215 5.79811 15.2481 6.58754 15.0471 7.48208C14.708 9.03373 14.0167 10.8808 11.8822 13.7574C11.4974 14.2703 11.1179 14.7579 10.759 15.2103C6.34425 20.8405 3.83507 23.1765 11.1459 31.9026C11.1459 31.9026 11.1153 31.9226 11.0495 31.922C10.9837 31.9214 10.8873 31.9407 10.7756 31.97C10.7756 31.97 10.7756 31.97 10.7603 31.98C9.60857 32.1867 6.2786 32.965 3.80742 35.5598C1.79684 37.6576 0.352137 40.9561 1.09291 46.0989C1.14965 46.5199 1.23167 46.9461 1.32366 47.3876C1.41566 47.8291 1.52293 48.2607 1.65081 48.657C1.65081 48.657 1.6508 48.657 1.66079 48.6723C1.78867 49.0686 1.9372 49.4296 2.09098 49.7653C6.51872 59.1526 23.1989 51.032 25.9932 49.6002L19.1858 59.1478C18.8522 59.6055 18.9423 60.2445 19.4 60.5781C19.8424 60.9217 20.4914 60.8469 20.845 60.4198L28.5775 51.0534C28.5775 51.0534 22.8116 73.9872 35.4605 74.823C35.4605 74.823 35.4858 74.8283 35.511 74.8336C35.926 74.868 36.3616 74.8671 36.8178 74.831L36.712 74.7692Z" fill="#8BD2A0"/>
</svg>
