<svg width="40" height="40" viewBox="0 0 40 40"
  xmlns="http://www.w3.org/2000/svg">
  <g>
    <rect width="40" height="40" fill="transparent"/>
    <path d="M21.2338 8.00148C22.1095 7.99812 22.9851 8.00692 23.8606 8.02788L24.0933 8.03628C24.3621 8.04587 24.6273 8.05787 24.9477 8.07227C26.2245 8.13227 27.0956 8.33387 27.86 8.63026C28.652 8.93504 29.3192 9.34783 29.9863 10.015C30.5964 10.6145 31.0685 11.3397 31.3699 12.1401C31.6663 12.9045 31.8679 13.7769 31.9279 15.0536C31.9423 15.3728 31.9543 15.6392 31.9639 15.908L31.9711 16.1408C31.9924 17.0158 32.0016 17.8911 31.9987 18.7663L31.9999 19.6615V21.2334C32.0028 22.1091 31.9936 22.9847 31.9723 23.8601L31.9651 24.0929C31.9555 24.3617 31.9435 24.6269 31.9291 24.9473C31.8691 26.2241 31.6651 27.0952 31.3699 27.8596C31.0695 28.6609 30.5972 29.3867 29.9863 29.9859C29.3863 30.5959 28.6608 31.068 27.86 31.3695C27.0956 31.6659 26.2245 31.8675 24.9477 31.9275C24.6273 31.9419 24.3621 31.9539 24.0933 31.9635L23.8606 31.9707C22.9852 31.992 22.1095 32.0012 21.2338 31.9983L20.3387 31.9995H18.7679C17.8923 32.0024 17.0166 31.9932 16.1412 31.9719L15.9084 31.9647C15.6236 31.9543 15.3388 31.9423 15.0541 31.9287C13.7773 31.8687 12.9061 31.6647 12.1406 31.3695C11.3398 31.0687 10.6145 30.5965 10.0154 29.9859C9.4047 29.3863 8.93213 28.6606 8.63067 27.8596C8.33428 27.0952 8.13269 26.2241 8.07269 24.9473C8.05933 24.6626 8.04733 24.3778 8.03669 24.0929L8.03069 23.8601C8.00857 22.9847 7.99857 22.1091 8.00069 21.2334V18.7663C7.99734 17.8911 8.00614 17.0158 8.02709 16.1408L8.03549 15.908C8.04509 15.6392 8.05709 15.3728 8.07149 15.0536C8.13149 13.7757 8.33308 12.9057 8.62947 12.1401C8.93111 11.3393 9.4046 10.6143 10.0166 10.0162C10.6153 9.40513 11.3401 8.93213 12.1406 8.63026C12.9061 8.33387 13.7761 8.13227 15.0541 8.07227L15.9084 8.03628L16.1412 8.03028C17.0162 8.00816 17.8915 7.99816 18.7667 8.00028L21.2338 8.00148ZM20.0003 14.0013C19.2053 13.99 18.416 14.1369 17.6783 14.4333C16.9406 14.7298 16.2692 15.1699 15.703 15.7281C15.1369 16.2863 14.6873 16.9514 14.3805 17.6849C14.0737 18.4183 13.9156 19.2054 13.9156 20.0005C13.9156 20.7955 14.0737 21.5826 14.3805 22.3161C14.6873 23.0495 15.1369 23.7147 15.703 24.2729C16.2692 24.831 16.9406 25.2712 17.6783 25.5676C18.416 25.864 19.2053 26.0109 20.0003 25.9997C21.5915 25.9997 23.1176 25.3675 24.2428 24.2424C25.368 23.1172 26.0001 21.5911 26.0001 19.9999C26.0001 18.4086 25.368 16.8826 24.2428 15.7574C23.1176 14.6322 21.5915 14.0013 20.0003 14.0013ZM20.0003 16.4012C20.4785 16.3924 20.9536 16.4789 21.398 16.6558C21.8424 16.8327 22.247 17.0964 22.5883 17.4314C22.9296 17.7664 23.2008 18.1661 23.3859 18.6071C23.571 19.0481 23.6664 19.5216 23.6665 19.9999C23.6666 20.4781 23.5713 20.9516 23.3864 21.3927C23.2014 21.8337 22.9304 22.2335 22.5892 22.5687C22.248 22.9038 21.8434 23.1676 21.3991 23.3446C20.9548 23.5217 20.4797 23.6084 20.0015 23.5997C19.0467 23.5997 18.1311 23.2205 17.456 22.5454C16.7809 21.8703 16.4016 20.9546 16.4016 19.9999C16.4016 19.0451 16.7809 18.1295 17.456 17.4544C18.1311 16.7793 19.0467 16.4 20.0015 16.4L20.0003 16.4012ZM26.3001 12.2013C25.913 12.2168 25.5468 12.3815 25.2784 12.6609C25.01 12.9403 24.8601 13.3127 24.8601 13.7001C24.8601 14.0875 25.01 14.4599 25.2784 14.7393C25.5468 15.0187 25.913 15.1833 26.3001 15.1988C26.6979 15.1988 27.0794 15.0408 27.3607 14.7595C27.642 14.4782 27.8 14.0967 27.8 13.6989C27.8 13.3011 27.642 12.9196 27.3607 12.6383C27.0794 12.357 26.6979 12.1989 26.3001 12.1989V12.2013Z" />
  </g>
</svg>
