<svg width="363" height="462" viewBox="0 0 363 462" fill="none" xmlns="http://www.w3.org/2000/svg">
<g opacity="0.4">
<path d="M36.6225 132.664C36.6225 132.664 -12.8088 168.86 -7.94941 206.09C-3.09005 243.32 77.0423 244.89 51.5102 254.061C25.9782 263.232 -14.8843 228.241 -14.8843 228.241C-14.8843 228.241 -29.4865 238.802 -18.2634 290.949C-7.01919 343.085 87.0102 319.598 87.0102 319.598C175.76 454.273 222.611 337.1 222.667 322.678C222.723 308.257 149.056 306.271 154.378 298.328C159.678 290.397 200.653 310.769 225.789 306.108C250.924 301.447 276.981 231.6 271.044 212.625C265.108 193.651 202.912 245.003 203.285 224.04C203.658 203.077 285.727 220.561 269.279 148.629C252.83 76.697 257.336 85.0932 225.901 137.317C194.486 189.528 152.933 167.819 179.915 152.749C279.749 96.9744 210.854 10.3631 210.854 10.3631C91.6899 53.9797 143.077 146.376 127.332 145.037C111.62 143.706 140.577 42.2187 121.073 60.4328C101.569 78.647 71.6101 57.4321 51.6299 96.4733C31.6615 135.536 96.2608 197.915 70.3863 207.913C44.5119 217.911 36.6014 132.676 36.6014 132.676L36.6225 132.664ZM182.352 247.892C202.356 243.209 218.645 250.002 216.137 260.863C213.629 271.723 173.097 270.2 173.097 270.2C159.212 264.643 162.337 252.554 182.352 247.892ZM103.262 169.915C119.828 187.402 121.298 196.409 119.948 204.327C119.948 204.327 97.5515 196.256 93.3527 180.355C89.1421 164.433 86.6747 152.44 103.262 169.915ZM51.8056 277.17C64.2082 282.003 78.4947 283.656 70.9427 293.061C70.9427 293.061 49.4407 301.566 40.8083 290.43C32.1641 279.272 39.403 272.338 51.8056 277.17Z" fill="#B7D331"/>
<path d="M-5.564 461.329C-5.564 461.329 115.425 335.501 200.272 37.4498" stroke="#02604D" stroke-width="0.5" stroke-linecap="round" stroke-linejoin="round"/>
</g>
</svg>
