<svg width="40" height="40" viewBox="0 0 40 40"
  xmlns="http://www.w3.org/2000/svg">
  <g>
    <path d="M26.375 8H13.625C10.5184 8 8 10.5184 8 13.625V26.375C8 29.4816 10.5184 32 13.625 32H26.375C29.4816 32 32 29.4816 32 26.375V13.625C32 10.5184 29.4816 8 26.375 8Z" />
    <path d="M25.317 28.408H28.0611C28.1605 28.408 28.2559 28.3685 28.3262 28.2982C28.3965 28.2279 28.4361 28.1325 28.4361 28.0331L28.4375 22.2354C28.4375 19.2051 27.7845 16.8759 24.2433 16.8759C22.8972 16.8258 21.6277 17.5198 20.9427 18.6785C20.9393 18.6841 20.9342 18.6885 20.9281 18.691C20.9221 18.6934 20.9154 18.6938 20.909 18.6921C20.9027 18.6904 20.8971 18.6867 20.8931 18.6815C20.8891 18.6763 20.8869 18.67 20.8869 18.6634V17.5306C20.8869 17.4312 20.8474 17.3358 20.777 17.2655C20.7067 17.1951 20.6113 17.1556 20.5119 17.1556H17.9078C17.8083 17.1556 17.7129 17.1951 17.6426 17.2655C17.5723 17.3358 17.5328 17.4312 17.5328 17.5306V28.0325C17.5328 28.132 17.5723 28.2273 17.6426 28.2977C17.7129 28.368 17.8083 28.4075 17.9078 28.4075H20.6517C20.7511 28.4075 20.8465 28.368 20.9168 28.2977C20.9871 28.2273 21.0267 28.132 21.0267 28.0325V22.8413C21.0267 21.3734 21.3051 19.9519 23.1249 19.9519C24.9188 19.9519 24.942 21.6315 24.942 22.9363V28.033C24.942 28.1324 24.9815 28.2278 25.0519 28.2981C25.1222 28.3685 25.2176 28.408 25.317 28.408ZM11.5625 13.59C11.5625 14.7024 12.4782 15.6176 13.5905 15.6176C14.7026 15.6175 15.6177 14.7017 15.6177 13.5897C15.6175 12.4776 14.7023 11.5625 13.5901 11.5625C12.4777 11.5625 11.5625 12.4778 11.5625 13.59ZM12.2149 28.408H14.9624C15.0619 28.408 15.1573 28.3685 15.2276 28.2981C15.2979 28.2278 15.3374 28.1324 15.3374 28.033V17.5306C15.3374 17.4312 15.2979 17.3358 15.2276 17.2655C15.1573 17.1951 15.0619 17.1556 14.9624 17.1556H12.2149C12.1155 17.1556 12.0201 17.1951 11.9497 17.2655C11.8794 17.3358 11.8399 17.4312 11.8399 17.5306V28.033C11.8399 28.1324 11.8794 28.2278 11.9497 28.2981C12.0201 28.3685 12.1155 28.408 12.2149 28.408Z" fill="#333" />
  </g>
</svg>
