<svg width="42" height="36" viewBox="0 0 42 36"
  xmlns="http://www.w3.org/2000/svg">
  <path d="M35.2503 16.2002H1.79977C1.32244 16.2002 0.864664 16.3898 0.527142 16.7274C0.189619 17.0649 0 17.5227 0 18C0 18.4773 0.189619 18.9351 0.527142 19.2726C0.864664 19.6102 1.32244 19.7998 1.79977 19.7998H35.2503L22.1228 32.9237C21.7849 33.2617 21.595 33.72 21.595 34.198C21.595 34.6759 21.7849 35.1342 22.1228 35.4722C22.4608 35.8101 22.9191 36 23.397 36C23.875 36 24.3333 35.8101 24.6713 35.4722L40.8692 19.2742C41.0368 19.1071 41.1698 18.9084 41.2606 18.6898C41.3513 18.4711 41.398 18.2367 41.398 18C41.398 17.7633 41.3513 17.5289 41.2606 17.3102C41.1698 17.0916 41.0368 16.8929 40.8692 16.7258L24.6713 0.527807C24.3333 0.189857 23.875 0 23.397 0C22.9191 0 22.4608 0.189857 22.1228 0.527807C21.7849 0.865756 21.595 1.32411 21.595 1.80205C21.595 2.27998 21.7849 2.73834 22.1228 3.07629L35.2503 16.2002Z" />
</svg>
