<svg width="24" height="24" viewBox="0 0 24 24" fill="none"
  xmlns="http://www.w3.org/2000/svg">
  <path d="M9.19558 0.600293C8.94867 0.649278 8.7314 0.79366 8.59147 1.00175C8.45154 1.20983 8.40038 1.46461 8.44923 1.71016C8.49807 1.95571 8.64293 2.17196 8.85199 2.31143C9.06106 2.4509 9.31725 2.5022 9.56433 2.45407C10.7904 2.21821 12.0505 2.21821 13.2766 2.45407C13.5186 2.4907 13.7654 2.4331 13.9658 2.29328C14.1661 2.15345 14.3044 1.94218 14.352 1.70347C14.3995 1.46477 14.3525 1.21704 14.2209 1.01188C14.0893 0.806726 13.8831 0.659969 13.6453 0.602183C12.1758 0.318804 10.6651 0.316914 9.19558 0.600293ZM17.7568 2.29534C17.5476 2.169 17.2974 2.12777 17.0584 2.18025C16.8194 2.23272 16.61 2.37484 16.4737 2.57701C16.3375 2.77918 16.285 3.0258 16.3271 3.26551C16.3693 3.50521 16.5028 3.71952 16.6999 3.86377C17.7374 4.55495 18.6285 5.44154 19.323 6.47342C19.4652 6.67689 19.682 6.81672 19.9269 6.86278C20.1717 6.90885 20.425 6.85746 20.6321 6.7197C20.8392 6.58194 20.9836 6.36881 21.0342 6.12623C21.0848 5.88365 21.0375 5.63103 20.9026 5.42276C20.0695 4.18606 19.0007 3.12358 17.7568 2.29534ZM6.1391 3.86377C6.2488 3.79752 6.34386 3.70987 6.41856 3.6061C6.49325 3.50233 6.54603 3.38459 6.57371 3.25999C6.60138 3.13539 6.60339 3.0065 6.5796 2.88111C6.5558 2.75572 6.50671 2.63642 6.43527 2.5304C6.36384 2.42439 6.27154 2.33386 6.16395 2.26427C6.05637 2.19468 5.93571 2.14748 5.80928 2.12551C5.68284 2.10355 5.55323 2.10727 5.42828 2.13646C5.30333 2.16564 5.18562 2.21969 5.08225 2.29534C3.83825 3.12355 2.76952 4.18603 1.93644 5.42276C1.86444 5.5258 1.81381 5.64207 1.7875 5.76477C1.76119 5.88748 1.75973 6.01417 1.78319 6.13744C1.80666 6.26071 1.85459 6.37811 1.92418 6.48277C1.99377 6.58743 2.08363 6.67727 2.18852 6.74704C2.2934 6.81681 2.41122 6.86511 2.53509 6.88912C2.65895 6.91314 2.78639 6.91239 2.90996 6.88692C3.03353 6.86145 3.15077 6.81177 3.25482 6.74077C3.35887 6.66978 3.44766 6.57889 3.516 6.47342C4.21073 5.44225 5.10186 4.55444 6.1391 3.86377ZM22.6076 9.51202C22.5836 9.39013 22.5356 9.27414 22.4664 9.17069C22.3973 9.06724 22.3083 8.97837 22.2045 8.90915C22.1008 8.83994 21.9843 8.79174 21.8618 8.76732C21.7393 8.7429 21.6131 8.74273 21.4906 8.76683C21.368 8.79093 21.2514 8.83882 21.1475 8.90776C21.0435 8.9767 20.9543 9.06534 20.8848 9.1686C20.8154 9.27187 20.7671 9.38773 20.7428 9.50956C20.7184 9.6314 20.7185 9.75681 20.7429 9.87862C20.9805 11.0691 20.9805 12.3768 20.7429 13.5673C20.6945 13.8129 20.7461 14.0676 20.8864 14.2754C21.0267 14.4833 21.2442 14.6273 21.4912 14.6759C21.7382 14.7244 21.9945 14.6736 22.2038 14.5344C22.4131 14.3953 22.5583 14.1793 22.6076 13.9339C22.8927 12.4736 22.8927 10.9723 22.6076 9.51202ZM2.098 9.87862C2.1469 9.63255 2.09547 9.37724 1.95502 9.16886C1.81458 8.96048 1.59661 8.8161 1.34909 8.76749C1.22653 8.74342 1.1004 8.74358 0.977901 8.76797C0.855403 8.79236 0.738937 8.8405 0.635152 8.90964C0.425548 9.04926 0.280322 9.26595 0.231423 9.51202C-0.0533779 10.9724 -0.0533779 12.4735 0.231423 13.9339C0.25545 14.0558 0.303419 14.1718 0.372585 14.2752C0.441751 14.3787 0.530756 14.4675 0.634508 14.5367C0.73826 14.606 0.854722 14.6542 0.97723 14.6786C1.09974 14.703 1.22589 14.7032 1.34846 14.6791C1.47103 14.655 1.58762 14.6071 1.69156 14.5381C1.7955 14.4692 1.88474 14.3806 1.95418 14.2773C2.02362 14.174 2.0719 14.0582 2.09625 13.9363C2.12061 13.8145 2.12056 13.6891 2.0961 13.5673C1.8591 12.349 1.861 11.0969 2.098 9.87862ZM20.9026 18.0231C21.0297 17.8152 21.0711 17.5665 21.0183 17.3289C20.9656 17.0912 20.8226 16.883 20.6192 16.7476C20.4159 16.6122 20.1678 16.56 19.9267 16.6019C19.6856 16.6438 19.47 16.7765 19.3249 16.9725C18.6296 18.0038 17.7378 18.8898 16.6999 19.5802C16.4952 19.7216 16.3546 19.9372 16.3083 20.1806C16.2619 20.424 16.3136 20.6758 16.4522 20.8817C16.5908 21.0876 16.8051 21.2311 17.0491 21.2814C17.2932 21.3317 17.5473 21.2847 17.7568 21.1506C19.0008 20.3224 20.0695 19.2599 20.9026 18.0231ZM3.516 16.9725C3.44936 16.8634 3.36119 16.7689 3.25681 16.6947C3.15243 16.6204 3.034 16.5679 2.90866 16.5404C2.78333 16.5129 2.65369 16.5109 2.52756 16.5346C2.40143 16.5582 2.28142 16.607 2.17479 16.678C2.06815 16.7491 1.97708 16.8408 1.90709 16.9478C1.83709 17.0547 1.78961 17.1747 1.76752 17.3004C1.74542 17.4261 1.74917 17.5549 1.77852 17.6791C1.80788 17.8034 1.86225 17.9204 1.93834 18.0231C2.77086 19.2597 3.83894 20.3222 5.08225 21.1506C5.18562 21.2262 5.30333 21.2803 5.42828 21.3094C5.55323 21.3386 5.68284 21.3424 5.80928 21.3204C5.93571 21.2984 6.05637 21.2512 6.16395 21.1816C6.27154 21.112 6.36384 21.0215 6.43527 20.9155C6.50671 20.8095 6.5558 20.6902 6.5796 20.5648C6.60339 20.4394 6.60138 20.3105 6.57371 20.1859C6.54603 20.0613 6.49325 19.9436 6.41856 19.8398C6.34386 19.736 6.2488 19.6484 6.1391 19.5821C5.10171 18.8909 4.21057 18.0043 3.516 16.9725ZM9.56433 20.9918C9.32235 20.9552 9.07548 21.0128 8.87516 21.1526C8.67483 21.2924 8.5365 21.5037 8.48896 21.7424C8.44143 21.9811 8.48837 22.2289 8.62 22.434C8.75163 22.6392 8.95781 22.7859 9.19558 22.8437C10.6645 23.1272 12.1745 23.1272 13.6434 22.8437C13.7708 22.8251 13.893 22.781 14.0026 22.714C14.1123 22.6471 14.2071 22.5587 14.2814 22.4542C14.3556 22.3497 14.4078 22.2313 14.4347 22.1062C14.4615 21.9811 14.4626 21.8519 14.4377 21.7264C14.4128 21.6008 14.3626 21.4816 14.29 21.376C14.2174 21.2703 14.124 21.1805 14.0154 21.1118C13.9069 21.0431 13.7854 20.9971 13.6584 20.9764C13.5314 20.9558 13.4015 20.9611 13.2766 20.9918C12.0505 21.2277 10.7904 21.2277 9.56433 20.9918ZM15.9814 15.1244C16.0564 15.0251 16.111 14.9121 16.1421 14.7919C16.1732 14.6716 16.1802 14.5465 16.1626 14.4236C16.1451 14.3007 16.1033 14.1824 16.0398 14.0755C15.9762 13.9686 15.8921 13.8752 15.7923 13.8007C15.6924 13.7261 15.5788 13.6718 15.4578 13.6409C15.3369 13.61 15.211 13.6031 15.0874 13.6205C14.9637 13.638 14.8448 13.6795 14.7372 13.7426C14.6297 13.8058 14.5358 13.8894 14.4608 13.9887C13.767 14.909 12.6626 15.5004 11.4195 15.5004C10.8292 15.501 10.2469 15.3647 9.71898 15.1022C9.19102 14.8398 8.73193 14.4585 8.37823 13.9887C8.227 13.7882 8.00185 13.6557 7.75232 13.6202C7.50279 13.5848 7.24933 13.6494 7.04768 13.7997C6.84603 13.9501 6.71272 14.1739 6.67707 14.422C6.64142 14.67 6.70636 14.922 6.8576 15.1225C7.38815 15.8273 8.07673 16.3995 8.86864 16.7934C9.66056 17.1874 10.534 17.3924 11.4195 17.392C13.2861 17.392 14.9417 16.5001 15.9814 15.1244ZM9.51871 9.36085C9.51871 9.54697 9.48184 9.73126 9.41019 9.90321C9.33855 10.0752 9.23354 10.2314 9.10116 10.363C8.96879 10.4946 8.81163 10.599 8.63867 10.6702C8.4657 10.7415 8.28033 10.7781 8.09311 10.7781C7.9059 10.7781 7.72052 10.7415 7.54756 10.6702C7.3746 10.599 7.21744 10.4946 7.08506 10.363C6.95269 10.2314 6.84768 10.0752 6.77603 9.90321C6.70439 9.73126 6.66752 9.54697 6.66752 9.36085C6.66752 8.98497 6.81771 8.62448 7.08506 8.3587C7.35242 8.09291 7.71502 7.94359 8.09311 7.94359C8.47121 7.94359 8.83381 8.09291 9.10116 8.3587C9.36852 8.62448 9.51871 8.98497 9.51871 9.36085ZM14.7459 10.7781C15.124 10.7781 15.4866 10.6288 15.7539 10.363C16.0213 10.0972 16.1715 9.73673 16.1715 9.36085C16.1715 8.98497 16.0213 8.62448 15.7539 8.3587C15.4866 8.09291 15.124 7.94359 14.7459 7.94359C14.3678 7.94359 14.0052 8.09291 13.7379 8.3587C13.4705 8.62448 13.3203 8.98497 13.3203 9.36085C13.3203 9.73673 13.4705 10.0972 13.7379 10.363C14.0052 10.6288 14.3678 10.7781 14.7459 10.7781Z" fill="#55B76B" />
</svg>
