<svg width="40" height="40" viewBox="0 0 40 40"
  xmlns="http://www.w3.org/2000/svg">
  <g>
    <rect width="40" height="40" fill="transparent"/>
    <path d="M20 8C26.6343 8 32 13.3657 32 20C32 26.6343 26.6343 32 20 32C13.3657 32 8 26.6343 8 20C8 13.3657 13.3657 8 20 8ZM17.8057 26.3257C23.12 26.3257 26.0343 21.92 26.0343 18.0971V17.72C26.6 17.3086 27.0971 16.7943 27.4743 16.2114C26.96 16.4343 26.3943 16.5886 25.8114 16.6743C26.4114 16.3143 26.8743 15.7486 27.08 15.08C26.5143 15.4057 25.8971 15.6457 25.2457 15.7829C24.7143 15.2171 23.96 14.8743 23.1371 14.8743C21.5429 14.8743 20.24 16.1771 20.24 17.7714C20.24 17.9943 20.2571 18.2171 20.3257 18.4229C17.9257 18.3029 15.7829 17.1543 14.36 15.4057C14.12 15.8343 13.9657 16.3314 13.9657 16.8629C13.9657 17.8571 14.48 18.7486 15.2514 19.2629C14.7714 19.2629 14.3257 19.1257 13.9486 18.9029V18.9371C13.9486 20.3429 14.9429 21.5086 16.2629 21.7829C16.0229 21.8514 15.7657 21.8857 15.5086 21.8857C15.32 21.8857 15.1486 21.8686 14.96 21.8343C15.32 22.9829 16.4 23.8229 17.6514 23.84C16.6571 24.6114 15.4057 25.0743 14.0514 25.0743C13.8114 25.0743 13.5886 25.0743 13.3657 25.04C14.6343 25.8629 16.16 26.3429 17.7886 26.3429" />
  </g>
</svg>
