<svg width="75" height="109" viewBox="0 0 75 109" fill="none" xmlns="http://www.w3.org/2000/svg">
<path d="M38.3796 37.4048L44.0001 1.04469C44.1939 -0.191498 45.7928 -0.390363 46.2074 0.770579C49.1199 8.90255 54.0566 27.9022 42.0136 39.5009L38.3796 37.4048Z" fill="#B7D331"/>
<path d="M35.8655 45.9022L1.64208 59.5487C0.479227 60.0109 -0.505967 58.7371 0.285419 57.7911C5.81974 51.1533 19.6986 37.2489 35.8278 41.7099L35.8655 45.9022Z" fill="#B7D331"/>
<path d="M45.1037 43.2739L73.7066 66.4713C74.681 67.2614 74.0458 68.7394 72.8291 68.5137C64.3284 66.9174 45.4052 61.5856 41.4536 45.3539L45.1037 43.2793V43.2739Z" fill="#B7D331"/>
<path d="M42.0212 43.1287L36.1245 43.6738L42.1829 108.998L48.0797 108.453L42.0212 43.1287Z" fill="#B7D331"/>
<path d="M44.6467 45.249C45.8309 41.974 44.1317 38.3606 40.8512 37.1783C37.5708 35.996 33.9515 37.6924 32.7672 40.9675C31.583 44.2425 33.2822 47.8559 36.5627 49.0382C39.8431 50.2205 43.4624 48.5241 44.6467 45.249Z" fill="#AABC02"/>
<path d="M43.1064 44.7953C42.175 47.2193 39.4456 48.434 37.0176 47.5041C34.5896 46.5743 33.3729 43.8493 34.3042 41.4253C35.2356 39.0013 37.9651 37.7866 40.3931 38.7165C42.8211 39.6463 44.0378 42.3713 43.1064 44.7953Z" fill="white"/>
<path opacity="0.25" d="M21.2867 49.8687L11.9839 53.6955" stroke="#89960B" stroke-width="0.67" stroke-miterlimit="10" stroke-linecap="round"/>
<path opacity="0.25" d="M30.9771 45.8862L24.7914 48.4285" stroke="#89960B" stroke-width="0.67" stroke-miterlimit="10" stroke-linecap="round"/>
<path opacity="0.25" d="M51.0632 50.8039L46.5841 47.2781" stroke="#89960B" stroke-width="0.67" stroke-miterlimit="10" stroke-linecap="round"/>
<path opacity="0.25" d="M61.2114 58.7965L53.3083 52.5725" stroke="#89960B" stroke-width="0.67" stroke-miterlimit="10" stroke-linecap="round"/>
<path opacity="0.25" d="M69.4375 65.2782L64.1885 61.1396" stroke="#89960B" stroke-width="0.67" stroke-miterlimit="10" stroke-linecap="round"/>
<path opacity="0.25" d="M42.1589 22.7534L40.6084 32.6806" stroke="#89960B" stroke-width="0.67" stroke-miterlimit="10" stroke-linecap="round"/>
<path opacity="0.25" d="M43.774 12.4177L42.7404 19.0179" stroke="#89960B" stroke-width="0.67" stroke-miterlimit="10" stroke-linecap="round"/>
<path opacity="0.25" d="M35.3057 41.8281C36.0378 39.9308 38.1697 38.9795 40.0701 39.7105" stroke="#89960B" stroke-width="0.52" stroke-miterlimit="10" stroke-linecap="round"/>
<path opacity="0.25" d="M42.1911 44.4675C41.4589 46.3648 39.327 47.3161 37.4266 46.5852" stroke="#89960B" stroke-width="0.52" stroke-miterlimit="10" stroke-linecap="round"/>
</svg>
