<?xml version="1.0" encoding="utf-8"?><svg viewBox="0 0 365 462" xmlns="http://www.w3.org/2000/svg" xmlns:xlink="http://www.w3.org/1999/xlink"><style>:root>svg{display:none}:root>svg:target{display:block}</style><svg fill="none" viewBox="0 0 79 75" id="accent-bg-butterfly" xmlns="http://www.w3.org/2000/svg"><path d="M36.712 74.77c2.108-.112 3.854-.51 5.313-1.049l-.046.03c.213-.074.392-.168.58-.248.29-.123.564-.237.829-.366.25-.12.438-.264.662-.389.515-.314.979-.639 1.382-.99.143-.115.286-.23.413-.335.215-.206.39-.406.579-.617.123-.146.256-.276.379-.422.164-.216.313-.422.461-.629.098-.15.211-.312.293-.453.124-.211.248-.423.361-.65l.218-.469c.098-.217.196-.433.27-.656.056-.146.103-.307.16-.454.073-.222.147-.444.204-.656l.08-.38c.105-.439.186-.884.245-1.294.022-.1.033-.217.054-.318.027-.192.04-.374.05-.557.002-.131.029-.258.04-.374.007-.157.013-.314.014-.446.002-.131-.002-.238.009-.354a6.797 6.797 0 0 0-.007-.345c-.004-.106.002-.197-.017-.294-.01-.08-.004-.172-.013-.253a1.779 1.779 0 0 1-.018-.228l-.014-.122-.014-.121c10.28 4.89 11.904 1.866 16.239-3.82.364-.478.728-.956 1.138-1.463 2.25-2.8 3.862-3.939 5.276-4.644.81-.398 1.542-.68 2.305-1.047.076-.05.178-.094.264-.13.108-.069.21-.114.326-.168.107-.07.23-.15.347-.204l.29-.19c.138-.09.275-.18.403-.285.092-.06.199-.13.28-.205.159-.125.307-.265.47-.416.092-.06.164-.15.246-.225l.06-.04c.23-.216.466-.457.697-.738 2.432-2.722-3.013-6.386-11.186-7.614-.82-.12-1.67-.218-2.525-.293a39.528 39.528 0 0 0-5.424-.057c-.937.067-1.89.144-2.828.277-.477.071-.954.143-1.446.224a34.71 34.71 0 0 0-4.335 1.042l-.03.02c-.651.207-1.27.393-1.875.57-.143.049-.295.083-.437.132-.59.167-1.138.329-1.671.48-.096.02-.183.055-.28.074-.461.127-.908.244-1.34.352a5.235 5.235 0 0 0-.32.078c-.462.127-.903.219-1.335.326-.096.02-.193.039-.279.073-.376.093-.736.176-1.066.238-.046.03-.096.02-.152.034-.36.083-.706.155-1.02.208-.081.01-.152.034-.234.044-.314.052-.603.11-.877.158-.03.02-.056.015-.097.02l-.695.104c-.055.015-.121.014-.177.029-.218.033-.431.041-.619.055l-.121.014c-.163.019-.32.012-.466.02-.016.01-.066 0-.082.01-.157-.007-.303.002-.42-.01-.015.01-.066 0-.09-.005l-.35-.034c-.101-.021-.192-.027-.278-.058l-.05-.01a1.007 1.007 0 0 1-.339-.15.34.34 0 0 1-.1-.088c-.085-.097-.094-.178-.09-.203.984-.031 1.945-.463 2.596-1.302.544-.704.76-1.543.691-2.349 2.908-.023 7.764-.467 11.368-2.864a.515.515 0 0 0 .139-.723.515.515 0 0 0-.723-.138c-3.426 2.302-8.282 2.68-11.027 2.684a3.247 3.247 0 0 0-1.045-1.367 3.387 3.387 0 0 0-1.964-.703c-.7-2.574-1.69-7.598-.268-11.667a.522.522 0 0 0-.323-.661.522.522 0 0 0-.661.323c-1.51 4.3-.541 9.425.192 12.152-.675.201-1.297.585-1.753 1.189-.652.84-.829 1.87-.61 2.84a.31.31 0 0 1-.117.055l-.01-.015c-.03-.046-.075-.082-.13-.133l-.04-.062-.12-.183-.07-.107c-.04-.061-.06-.158-.104-.26-.03-.045-.035-.086-.05-.142-.038-.127-.078-.254-.112-.406-.02-.03-.024-.071-.03-.112-.048-.208-.091-.441-.145-.69-.014-.056-.014-.121-.028-.177a81.368 81.368 0 0 1-.105-.695 2.165 2.165 0 0 1-.037-.325c-.028-.243-.051-.512-.084-.796a2.953 2.953 0 0 1-.027-.375c-.026-.375-.048-.775-.074-1.216-.005-.04.006-.091-.009-.147-.025-.507-.03-1.049-.04-1.631a4.935 4.935 0 0 1-.006-.476c-.01-.451-.016-.928 0-1.439.006-.223.004-.46.01-.683 0-.502.02-1.039.031-1.59-.003-.239.005-.461.017-.71a69 69 0 0 1 .096-2.592c.195-4.51-.497-8.878-1.686-12.703a38.302 38.302 0 0 0-1.323-3.63 55.542 55.542 0 0 0-.953-2.06 33.655 33.655 0 0 0-.591-1.14c-3.097-5.545-6.91-8.312-8.626-5.73-.216.337-.412.639-.567.936-.061.106-.093.192-.154.298-.093.191-.196.367-.274.55-.052.12-.098.216-.135.327-.057.146-.13.303-.171.439l-.11.333c-.042.137-.078.248-.105.374-.026.126-.063.237-.09.364-.02.1-.042.202-.048.293-.16.824-.233 1.614-.434 2.508-.339 1.552-1.03 3.399-3.165 6.275-.385.513-.764 1-1.123 1.453-4.415 5.63-6.924 7.966.387 16.693 0 0-.03.02-.097.019a1.18 1.18 0 0 0-.273.048l-.016.01c-1.151.207-4.481.985-6.953 3.58-2.01 2.098-3.455 5.396-2.714 10.539.057.42.139.847.23 1.289.093.441.2.873.328 1.269l.01.015c.128.397.276.758.43 1.093 4.428 9.388 21.108 1.267 23.902-.165l-6.807 9.548a1.02 1.02 0 0 0 .214 1.43 1.053 1.053 0 0 0 1.445-.158l7.733-9.367s-5.766 22.934 6.883 23.77l.05.01c.415.035.85.034 1.307-.002l-.106-.062z" fill="#8BD2A0"/></svg><svg fill="none" viewBox="0 0 52 47" id="accent-butterfly" xmlns="http://www.w3.org/2000/svg"><path d="M29.62 45.756c1.35-.423 2.404-.968 3.263-1.566l-.023.028c.122-.088.21-.174.333-.261.163-.118.335-.244.48-.377.129-.115.239-.245.368-.36.271-.281.524-.579.734-.864.079-.093.158-.187.21-.286.108-.165.18-.326.271-.49.06-.108.129-.227.172-.334.073-.162.13-.322.193-.492.034-.115.085-.232.119-.347.046-.168.095-.32.124-.486.034-.115.05-.23.067-.343.022-.158.06-.317.065-.473l.026-.313c.005-.157.026-.314.023-.46 0-.096-.005-.165-.004-.26a10.036 10.036 0 0 0-.055-.878c-.005-.07-.02-.146-.026-.215a4.68 4.68 0 0 0-.064-.358l-.046-.247c-.026-.102-.042-.196-.068-.297a1.858 1.858 0 0 0-.062-.229c-.024-.084-.047-.152-.062-.228-.023-.068-.036-.127-.06-.194-.013-.06-.034-.11-.046-.152-.014-.06-.034-.093-.055-.143l-.032-.075-.033-.075c7.465 1.437 8.01-.788 9.864-5.18.151-.368.31-.745.495-1.132.98-2.192 1.841-3.189 2.64-3.886.452-.4.886-.704 1.316-1.06.039-.046.105-.086.154-.125.055-.065.12-.105.176-.17.055-.065.12-.123.192-.19l.15-.176.213-.251.15-.177c.087-.102.155-.22.24-.34.048-.055.086-.12.124-.183l.031-.037c.106-.182.22-.373.332-.598 1.112-2.16-3.016-3.63-8.507-3.057-.549.062-1.105.134-1.685.233a25.913 25.913 0 0 0-3.52.87 24.29 24.29 0 0 0-1.79.657c-.292.12-.593.248-.885.384a22.23 22.23 0 0 0-2.628 1.402l-.016.018-1.12.68c-.092.052-.174.11-.265.161-.346.201-.676.402-.998.593-.058.03-.107.069-.157.09-.281.162-.554.314-.81.465-.058.03-.124.07-.182.101a21.15 21.15 0 0 1-.803.439l-.175.092a94.38 94.38 0 0 0-.647.33c-.033.02-.058.03-.091.05-.225.114-.433.21-.625.303l-.15.064a7.478 7.478 0 0 1-.542.244c-.016.018-.034.02-.05.021-.151.064-.302.129-.436.174-.033.02-.076.033-.1.043-.143.055-.278.1-.396.145-.025.01-.05.022-.084.024-.11.035-.202.069-.296.085-.008.01-.042.012-.06.014-.101.026-.186.05-.28.066-.017.002-.042.012-.059.014-.077.015-.153.03-.222.035l-.19.016-.034.003a.67.67 0 0 1-.244-.032c-.019-.016-.063-.021-.081-.037-.073-.046-.087-.105-.096-.113a2.247 2.247 0 0 0 1.462-1.271 2.246 2.246 0 0 0 .047-1.64c1.88-.5 4.949-1.592 6.866-3.74a.344.344 0 0 0-.031-.49.344.344 0 0 0-.491.032c-1.839 2.054-4.91 3.111-6.69 3.57a2.163 2.163 0 0 0-.898-.715 2.296 2.296 0 0 0-1.395-.127c-.88-1.546-2.363-4.643-2.123-7.51a.35.35 0 0 0-.698-.064c-.252 3.032 1.218 6.182 2.158 7.827-.405.233-.74.589-.943 1.056a2.286 2.286 0 0 0 .081 1.94.229.229 0 0 1-.073.05l-.01-.009c-.028-.023-.063-.038-.1-.07l-.038-.03-.111-.095a.236.236 0 0 1-.058-.065c-.037-.031-.068-.09-.116-.146-.027-.024-.038-.049-.058-.082-.05-.074-.091-.157-.142-.248a.18.18 0 0 1-.04-.066c-.07-.124-.133-.257-.216-.423-.02-.033-.032-.076-.044-.118-.063-.133-.118-.276-.183-.426a2.777 2.777 0 0 0-.078-.21c-.064-.15-.122-.328-.18-.505-.032-.075-.046-.152-.079-.227-.08-.244-.17-.496-.254-.775-.01-.025-.013-.06-.033-.092-.096-.321-.202-.668-.311-1.048l-.077-.305c-.076-.288-.162-.601-.24-.924a6.97 6.97 0 0 1-.106-.44 79.09 79.09 0 0 1-.241-1.037c-.03-.153-.068-.297-.107-.458a107.01 107.01 0 0 1-.372-1.692c-.624-2.96-1.807-5.658-3.205-7.932a24.037 24.037 0 0 0-2.425-3.288 10.905 10.905 0 0 0-.58-.636C8.227.55 5.294-.593 4.615 1.358c-.083.249-.15.48-.21.7-.02.08-.031.15-.052.213a9.966 9.966 0 0 0-.088.405c-.02.08-.022.157-.041.237a4.39 4.39 0 0 0-.034.323c-.003.078-.013.165-.015.243 0 .096-.003.174-.004.269-.002.078.005.164.003.242.005.069.002.13.007.198.038.56.107 1.082.139 1.685.044 1.061-.091 2.37-1.008 4.583-.166.403-.326.78-.486 1.139-1.908 4.38-3.152 6.299 3.036 10.732 0 0-.016.018-.058.03-.042.013-.1.043-.176.076l-.008.009c-.708.326-2.734 1.375-3.91 3.48-.952 1.687-1.337 4.064.008 7.268.116.259.225.527.36.801.135.275.277.523.426.761l.01.008c.14.23.295.443.467.637 4.436 5.33 13.867-2.697 15.43-4.09l-2.816 7.32a.704.704 0 0 0 1.291.551l3.438-7.352s.095 15.802 8.41 14.219l.035-.003c.273-.057.553-.123.849-.208l.002-.078z" fill="#8BD2A0"/></svg><svg fill="none" viewBox="0 0 175 168" id="arrows-circle" xmlns="http://www.w3.org/2000/svg"><path d="M51.511 18.43 40.336 6.556c-.744-.789-2.096-.226-2.028.856l2.185 44.43c.023.542.406.992.947 1.105l45.107 9.035c1.081.225 1.825-1.036 1.149-1.893l-9.53-11.851c-.339-.428-.361-1.036 0-1.465 3.784-4.686 25.482-30.597 42.267-34.292 1.172-.248 1.262-1.87.113-2.23L91.098.968a21.007 21.007 0 0 0-18.926 3.244L53.066 18.565c-.474.36-1.15.293-1.555-.136z" fill="#5B9739"/><path d="M105.382 29.47a2.99 2.99 0 0 1 .924-2.93c4.304-3.807 18.228-14.825 29.606-9.372 11.153 5.34 12.55 24.784 12.685 31.7a2.977 2.977 0 0 1-2.388 2.975l-31.116 6.692c-1.622.338-3.222-.676-3.582-2.276l-6.106-26.79h-.023zm52.678 63.537 15.997-3.244c1.082-.226 1.285-1.645.338-2.186l-38.911-21.54a1.162 1.162 0 0 0-1.419.226l-31.431 33.594c-.744.811-.09 2.095 1.014 1.96l15.096-1.87c.54-.068 1.059.225 1.239.766 1.983 5.7 12.617 37.762 6.894 53.984-.405 1.149.924 2.05 1.848 1.262l23.365-20.12a20.956 20.956 0 0 0 7.209-17.777l-2.14-23.816c-.045-.585.361-1.149.946-1.261l-.045.022z" fill="#5B9739"/><path d="M120.298 132.999c1.059.361 1.803 1.24 2.006 2.344.968 5.655 3.019 23.297-7.616 30.101-10.409 6.669-27.668-2.388-33.639-5.903-1.239-.744-1.757-2.231-1.261-3.605l10.702-29.989a3.026 3.026 0 0 1 3.83-1.847l25.978 8.899zm-77.867 12.46-4.89 15.569c-.337 1.036.812 1.938 1.736 1.352l37.671-23.635c.451-.293.654-.856.496-1.352L63.272 93.638c-.338-1.037-1.802-1.104-2.208-.068l-5.678 14.127a1.14 1.14 0 0 1-1.261.721c-5.926-1.014-39.16-7.255-50.582-20.098-.812-.9-2.254-.18-2.006 1.014l6.286 30.169A20.965 20.965 0 0 0 19.9 134.419l21.878 9.666c.54.248.833.856.653 1.419v-.045z" fill="#5B9739"/><path d="M25.69 93.052c-.833.743-1.96.991-3.019.608C17.264 91.79.84 85.031.028 72.436c-.789-12.324 15.479-23.049 21.45-26.564a3 3 0 0 1 3.762.631l21.044 23.883a2.997 2.997 0 0 1-.248 4.236l-20.368 18.43h.023z" fill="#5B9739"/></svg><svg fill="none" viewBox="0 0 104 109" id="green-branch" xmlns="http://www.w3.org/2000/svg"><path d="M26.539 43.447c1.72 2.05 11.724 14.308 12.825 23.511C29.222 99.438 58.642 109 58.642 109c4.541-13.372 2.821-26.166-2.793-33.815-3.647-4.966-8.82-8.722-12.04-10.772-1.294-5.97-5.078-12.422-8.38-17.196 1.582.578 3.164 1.142 4.815 1.65 10.569 3.206 17.903 6.384 23.05 9.204-2.395 25.809 40.208 35.714 40.208 35.714-.881-5.008 4.857-16-8.421-29.757-9.633-9.974-21.784-9.96-27.756-9.203-4.65-2.724-11.036-5.71-19.898-8.722 1.666-.372 3.262-.785 4.624-1.225 30.493 15.133 42.562-12.422 42.562-12.422-31.953-16.55-42.92 1.898-45.644 8.323-3.95 1.059-9.303 1.898-11.105 2.16-11.642-4.141-21.384-10.36-28.98-16.509 2.82-.151 6.11-.537 9.123-1.417 25.677 10.58 42.08-19.109 42.08-19.109-31.553-17.526-44.254 8.943-46.73 15.216-4.143.674-8.299.619-10.019.55-8.6-7.91-13.265-14.582-13.361-14.72L-14 9.674c.44.646 6.426 9.19 17.325 18.503 1.06 1.885 5.793 10.607 6.123 17.953-19.664 18.27 10.21 52.098 10.21 52.098l2.959-20.91c2.133-15.12-4.5-25.63-8.353-30.307.014-4.141-1.17-8.585-2.587-12.354a105.718 105.718 0 0 0 14.876 8.777l-.014.014z" fill="#8BD2A0"/></svg><svg fill="none" viewBox="0 0 210 171" id="green-leaves" xmlns="http://www.w3.org/2000/svg"><g filter="url(#ea)"><path d="M28.56 25.633c137.499 29.137 87.298 107.541 87.298 107.541s-87.06 33.004-87.298-107.54z" fill="#71BE63"/></g><path d="m28.56 25.633 87.298 107.541S166.059 54.77 28.56 25.634z" fill="#43AB5F"/><g filter="url(#eb)"><path d="M158.242 36.102c55.018 109.18-25.515 117.752-25.515 117.752s-69.774-41.131 25.515-117.752z" fill="#3C9B61"/></g><path d="m158.241 36.102-25.514 117.752s80.532-8.572 25.514-117.752z" fill="#388253"/><defs><filter id="ea" x="25.56" y="22.633" width="116.24" height="130.912" filterUnits="userSpaceOnUse" color-interpolation-filters="sRGB"><feFlood flood-opacity="0" result="BackgroundImageFix"/><feColorMatrix in="SourceAlpha" values="0 0 0 0 0 0 0 0 0 0 0 0 0 0 0 0 0 0 127 0" result="hardAlpha"/><feOffset dx="7" dy="7"/><feGaussianBlur stdDeviation="5"/><feColorMatrix values="0 0 0 0 0 0 0 0 0 0 0 0 0 0 0 0 0 0 0.2 0"/><feBlend in2="BackgroundImageFix" result="effect1_dropShadow_75_578"/><feBlend in="SourceGraphic" in2="effect1_dropShadow_75_578" result="shape"/></filter><filter id="eb" x="105.089" y="33.102" width="89.382" height="137.752" filterUnits="userSpaceOnUse" color-interpolation-filters="sRGB"><feFlood flood-opacity="0" result="BackgroundImageFix"/><feColorMatrix in="SourceAlpha" values="0 0 0 0 0 0 0 0 0 0 0 0 0 0 0 0 0 0 127 0" result="hardAlpha"/><feOffset dx="7" dy="7"/><feGaussianBlur stdDeviation="5"/><feColorMatrix values="0 0 0 0 0 0 0 0 0 0 0 0 0 0 0 0 0 0 0.2 0"/><feBlend in2="BackgroundImageFix" result="effect1_dropShadow_75_578"/><feBlend in="SourceGraphic" in2="effect1_dropShadow_75_578" result="shape"/></filter></defs></svg><svg fill="none" viewBox="0 0 184 218" id="hero-lamp" xmlns="http://www.w3.org/2000/svg"><g filter="url(#fa)"><path d="M113.871 9.245c16.144 3.334 30.774 12.343 41.029 25.262 26.31 33.166 12.17 72.629-1.924 92.243-16.582 23.078-57.237 35.16-71.85 37.687-14.601 2.526-16.309 11.075-16.309 11.075l-18.15-11.178-18.149-11.178s6.866-5.375 2.549-19.548c-4.319-14.185-11.832-55.933 1.308-81.123C43.543 31.07 72.415.673 113.871 9.245z" fill="#F3FFB1"/><path d="M64.817 175.512 52.31 195.818c-5.32 8.64-16.597 11.372-25.174 6.084l-5.247-3.23c-8.576-5.288-11.223-16.569-5.903-25.22l12.508-20.307 36.324 22.367z" fill="#B1D000"/><path d="m20.172 164.053 40.225 21.869c.92.501 2.073.16 2.573-.761l.854-1.571c.501-.92.16-2.073-.76-2.573l-40.225-21.869a1.897 1.897 0 0 0-2.574.761l-.854 1.57c-.5.921-.16 2.073.761 2.574zm-5.302 10.171 38.578 20.974c.921.501 2.073.16 2.574-.761l.854-1.571c.5-.92.16-2.072-.76-2.573l-38.58-20.974a1.898 1.898 0 0 0-2.573.76l-.854 1.571a1.898 1.898 0 0 0 .76 2.574zm-3.76 10.451 35.651 19.382c.92.501 2.073.16 2.574-.76l.854-1.571c.5-.921.16-2.073-.761-2.574L13.777 179.77a1.897 1.897 0 0 0-2.573.761l-.855 1.571c-.5.92-.16 2.072.761 2.573z" fill="#5B9739"/><path d="M57.651 121.769c-4.356-11.137-16.061-50.266 22.005-76.543 1.432-.98 3.396-.493 4.153 1.074 5.288 10.793 20.537 50.127-22.026 76.812-1.507.948-3.504.316-4.144-1.342l.012-.001z" fill="#B1D000"/><path d="M46.668 164.334s9.67-23.366 13.161-43.063l21.699-72.823m2.522 13.639s-8.766 10.89-11.558 16.587m-7.278-10.44s5.705 11.72 3.379 23.399m16.083-2.596s-13.472 3.998-19.39 14.17m-6.571-14.171s5.704 11.721 3.378 23.399" stroke="#5B9739" stroke-width=".5" stroke-miterlimit="10" stroke-linecap="round"/><path d="M65.147 129.529c5.964-6.263 28.06-25.907 56.921-8.962 1.082.634 1.357 2.081.57 3.05-5.46 6.772-26.597 28.786-57.099 9.033-1.074-.696-1.279-2.195-.393-3.133v.012z" fill="#B1D000"/><path d="m120.521 122.772-54.39 8.03s-5.802.382-14.012 19.111m60.233-21.316s-9.819-2.417-14.405-2.504m4.614-7.979s-5.941 7.321-14.307 9.368m6.619 9.758s-6.745-7.619-15.217-8.38m7.282-8.639s-5.942 7.322-14.308 9.369m73.994-15.694c-3.412 5.05-7.795 10.153-13.349 15.236m22.921-37.756c-1.089 5.64-3.127 11.516-6.475 17.5m-3.178-63.783s10.482 11.517 10.642 35.545m-13.727-17.563c1.729 5.922 2.46 12.753 1.375 20.44M124.518 35.86s7.804 5.415 13.85 15.594" stroke="#5B9739" stroke-width=".5" stroke-miterlimit="10" stroke-linecap="round"/></g><defs><filter id="fa" x="4.119" y=".759" width="179.535" height="216.839" filterUnits="userSpaceOnUse" color-interpolation-filters="sRGB"><feFlood flood-opacity="0" result="BackgroundImageFix"/><feColorMatrix in="SourceAlpha" values="0 0 0 0 0 0 0 0 0 0 0 0 0 0 0 0 0 0 127 0" result="hardAlpha"/><feOffset dx="4" dy="3"/><feGaussianBlur stdDeviation="5"/><feComposite in2="hardAlpha" operator="out"/><feColorMatrix values="0 0 0 0 0 0 0 0 0 0 0 0 0 0 0 0 0 0 0.25 0"/><feBlend in2="BackgroundImageFix" result="effect1_dropShadow_20_8941"/><feBlend in="SourceGraphic" in2="effect1_dropShadow_20_8941" result="shape"/></filter></defs></svg><svg fill="none" viewBox="0 0 363 462" id="leaf-bottom" xmlns="http://www.w3.org/2000/svg"><g opacity=".4"><path d="M36.623 132.664S-12.81 168.86-7.95 206.09c4.859 37.23 84.991 38.8 59.46 47.971-25.533 9.171-66.395-25.82-66.395-25.82s-14.602 10.561-3.38 62.708C-7.018 343.085 87.01 319.598 87.01 319.598c88.75 134.675 135.601 17.502 135.657 3.08.056-14.421-73.611-16.407-68.289-24.35 5.3-7.931 46.275 12.441 71.411 7.78 25.135-4.661 51.192-74.508 45.255-93.483-5.936-18.974-68.132 32.378-67.759 11.415.373-20.963 82.442-3.479 65.994-75.411-16.449-71.932-11.943-63.536-43.378-11.312-31.415 52.211-72.968 30.502-45.986 15.432 99.834-55.775 30.939-142.386 30.939-142.386C91.69 53.98 143.077 146.376 127.332 145.037c-15.712-1.331 13.245-102.818-6.259-84.604-19.504 18.214-49.463-3-69.443 36.04-19.969 39.063 44.63 101.442 18.756 111.44-25.874 9.998-33.785-75.237-33.785-75.237l.022-.012zm145.729 115.228c20.004-4.683 36.293 2.11 33.785 12.971-2.508 10.86-43.04 9.337-43.04 9.337-13.885-5.557-10.76-17.646 9.255-22.308zm-79.09-77.977c16.566 17.487 18.036 26.494 16.686 34.412 0 0-22.396-8.071-26.595-23.972-4.21-15.922-6.678-27.915 9.909-10.44zM51.806 277.17c12.402 4.833 26.689 6.486 19.137 15.891 0 0-21.502 8.505-30.135-2.631-8.644-11.158-1.405-18.092 10.998-13.26z" fill="#B7D331"/><path d="M-5.564 461.329s120.989-125.828 205.836-423.88" stroke="#02604D" stroke-width=".5" stroke-linecap="round" stroke-linejoin="round"/></g></svg><svg fill="none" viewBox="0 0 365 462" id="leaf-top" xmlns="http://www.w3.org/2000/svg"><g opacity=".4"><path d="M325.597 132.665s49.431 36.195 44.572 73.425c-4.86 37.23-84.992 38.8-59.46 47.971 25.532 9.171 66.395-25.819 66.395-25.819s14.602 10.56 3.379 62.708c-11.245 52.135-105.274 28.648-105.274 28.648-88.75 134.675-135.601 17.502-135.656 3.08-.056-14.421 73.61-16.407 68.289-24.35-5.301-7.93-46.275 12.441-71.411 7.78-25.136-4.661-51.193-74.508-45.256-93.483 5.937-18.974 68.133 32.378 67.759 11.415-.373-20.963-82.442-3.479-65.993-75.411 16.448-71.932 11.942-63.536 43.378-11.312 31.414 52.211 72.967 30.502 45.985 15.432C82.47 96.975 151.365 10.363 151.365 10.363c119.164 43.617 67.778 136.013 83.522 134.674 15.712-1.331-13.244-102.818 6.259-84.604 19.504 18.214 49.463-3 69.443 36.04 19.969 39.063-44.631 101.442-18.756 111.44 25.874 9.998 33.785-75.237 33.785-75.237l-.021-.011zm-145.73 115.227c-20.004-4.683-36.293 2.111-33.785 12.971 2.508 10.86 43.04 9.338 43.04 9.338 13.885-5.558 10.76-17.647-9.255-22.309zm79.09-77.977c-16.566 17.487-18.036 26.494-16.686 34.413 0 0 22.397-8.072 26.596-23.973 4.21-15.922 6.678-27.915-9.91-10.44zm51.457 107.255c-12.403 4.833-26.689 6.486-19.137 15.891 0 0 21.502 8.506 30.134-2.631 8.644-11.158 1.405-18.092-10.997-13.26z" fill="#B7D331"/><path d="M367.783 461.329S246.794 335.501 161.947 37.449" stroke="#02604D" stroke-width=".5" stroke-linecap="round" stroke-linejoin="round"/></g></svg><svg fill="none" viewBox="0 0 93 84" id="primary-butterfly" xmlns="http://www.w3.org/2000/svg"><path d="M52.303 82.942c2.448-.766 4.36-1.755 5.919-2.84l-.043.05c.222-.16.382-.314.605-.473a9.46 9.46 0 0 0 .87-.684c.234-.207.434-.444.668-.651a15.58 15.58 0 0 0 1.33-1.57c.144-.168.287-.337.382-.517.195-.299.328-.592.492-.888.11-.197.233-.412.311-.606.133-.294.235-.585.35-.892.062-.21.155-.421.216-.63.085-.305.172-.58.226-.882.06-.21.091-.416.121-.622.04-.286.11-.574.118-.857l.047-.57c.009-.282.048-.568.042-.835.001-.172-.009-.297-.008-.47a18.468 18.468 0 0 0-.099-1.593c-.01-.124-.037-.263-.047-.388a8.522 8.522 0 0 0-.117-.65c-.027-.139-.056-.31-.084-.448-.046-.185-.076-.355-.122-.54a3.38 3.38 0 0 0-.113-.414c-.044-.153-.085-.275-.112-.414-.042-.123-.066-.23-.108-.353-.024-.108-.063-.198-.085-.275-.025-.108-.061-.168-.1-.259l-.058-.136-.059-.137c13.54 2.608 14.527-1.429 17.89-9.396.275-.666.565-1.349.9-2.051 1.776-3.976 3.338-5.784 4.788-7.049.82-.726 1.606-1.277 2.385-1.922.071-.084.191-.157.28-.227.1-.118.22-.19.32-.309.1-.118.217-.222.348-.342l.272-.321.386-.456.272-.32c.157-.186.281-.4.436-.617.086-.1.155-.216.224-.332l.057-.067c.193-.33.4-.677.601-1.086 2.017-3.917-5.469-6.582-15.429-5.544a53.46 53.46 0 0 0-3.057.424 47.01 47.01 0 0 0-6.384 1.576 44.04 44.04 0 0 0-3.245 1.193c-.532.216-1.078.45-1.607.697a40.215 40.215 0 0 0-4.766 2.541l-.029.034-2.033 1.235c-.165.092-.313.198-.479.29-.629.366-1.227.729-1.81 1.075-.106.056-.194.126-.285.165-.51.293-1.005.569-1.47.842-.104.056-.224.129-.33.184-.509.293-.99.552-1.456.795l-.316.167c-.407.206-.814.412-1.175.599-.06.036-.106.056-.166.092-.406.206-.785.378-1.132.548l-.273.117c-.347.17-.68.322-.983.441-.03.034-.06.037-.092.04-.272.116-.545.233-.79.315-.06.037-.136.059-.182.078-.258.1-.503.183-.716.263a.46.46 0 0 1-.153.044c-.199.063-.367.124-.537.154-.014.017-.076.022-.108.024-.184.047-.337.091-.508.12-.03.003-.076.023-.108.025-.139.027-.278.055-.402.065l-.343.028-.063.005a1.214 1.214 0 0 1-.444-.058c-.034-.028-.113-.037-.147-.066-.132-.083-.157-.191-.173-.206 1.15-.33 2.15-1.134 2.651-2.305.422-.976.414-2.027.085-2.973 3.41-.908 8.977-2.888 12.455-6.784a.624.624 0 0 0-.058-.89.623.623 0 0 0-.89.058c-3.335 3.727-8.906 5.644-12.134 6.474a3.922 3.922 0 0 0-1.629-1.294 4.164 4.164 0 0 0-2.53-.232c-1.596-2.804-4.286-8.421-3.85-13.621a.637.637 0 0 0-.575-.69.637.637 0 0 0-.69.574c-.459 5.5 2.208 11.214 3.913 14.197a4.059 4.059 0 0 0-1.71 1.914c-.501 1.171-.396 2.45.147 3.52a.41.41 0 0 1-.134.089l-.017-.014c-.05-.043-.115-.07-.183-.127a51.933 51.933 0 0 1-.067-.057l-.203-.171c-.033-.03-.067-.058-.104-.117-.067-.058-.123-.163-.21-.266-.05-.043-.07-.088-.106-.148-.09-.134-.165-.285-.257-.45a.31.31 0 0 1-.072-.12c-.129-.224-.243-.466-.393-.768a.896.896 0 0 1-.08-.213c-.114-.241-.214-.5-.33-.773a5.036 5.036 0 0 0-.142-.38c-.117-.274-.221-.595-.326-.916-.059-.136-.086-.275-.144-.412-.146-.443-.31-.9-.46-1.406-.02-.045-.025-.108-.062-.168-.173-.582-.366-1.21-.564-1.9l-.14-.553c-.136-.522-.293-1.09-.435-1.675a12.592 12.592 0 0 1-.191-.8c-.143-.585-.29-1.232-.437-1.88-.055-.277-.123-.539-.194-.831-.221-.97-.445-1.973-.676-3.068-1.132-5.37-3.276-10.263-5.812-14.386a41.636 41.636 0 0 0-2.655-3.847 43.623 43.623 0 0 0-1.743-2.117 19.81 19.81 0 0 0-1.053-1.154C13.5.95 8.182-1.125 6.95 2.415c-.151.451-.274.87-.382 1.27-.035.145-.056.272-.094.385-.059.24-.115.512-.16.735-.035.144-.039.286-.074.43-.03.206-.046.396-.062.586-.004.141-.022.3-.026.441-.002.173-.006.315-.007.487-.004.142.008.298.004.44.01.124.004.235.014.36.068 1.014.193 1.961.251 3.055.08 1.924-.165 4.299-1.828 8.312-.301.731-.59 1.414-.882 2.066-3.46 7.944-5.716 11.425 5.507 19.465 0 0-.028.034-.105.056s-.182.078-.318.136l-.015.017c-1.285.592-4.959 2.495-7.094 6.312-1.726 3.06-2.423 7.371.016 13.182.211.47.408.956.653 1.454.245.498.502.947.773 1.38l.017.014c.254.42.537.804.848 1.155 8.046 9.667 25.15-4.891 27.988-7.416L26.865 70.01c-.246.633.065 1.36.683 1.624a1.27 1.27 0 0 0 1.66-.623l6.234-13.336s.173 28.662 15.256 25.79l.062-.005a21.489 21.489 0 0 0 1.538-.377l.005-.142z" fill="#55B76B"/></svg><svg fill="none" viewBox="0 0 340 340" id="primary-circle" xmlns="http://www.w3.org/2000/svg"><path d="M254.919 254.919c46.929-46.929 46.929-123.016 0-169.946-46.929-46.929-123.017-46.929-169.946 0-46.93 46.93-46.93 123.017 0 169.946 46.929 46.93 123.017 46.93 169.946 0z" fill="#55B76B"/><path d="M209.909 157.008s5.28 2.33 6.64 4.97c1.36 2.65 9.88-2.74 11.68 2.47 1.8 5.21 6.19-.11 7.29 7.78 1.09 7.89-5.15 10.97 1.98 15.53 7.13 4.56 16.93 14.87 19.26 24.25 2.33 9.38 11.36 30.38 4.83 31.61-6.53 1.22-5.27-7.37-10.5-10.15-5.24-2.78-3.12-5.79-6.29-11.13-3.17-5.34-16.68-.42-21.14-1.75-4.46-1.33-10.71 4.27-22.35 1.34-11.64-2.92-12.65-9.2-20-11.49-7.34-2.29-8.08-6.71 3.76-15.68 11.84-8.97 6.18-24.39 14.95-29.98s1.17-5.16 9.89-7.78v.01zm-79.65-78.93s6.37-4.44 6.81.64c.44 5.08-5.37 15.76-.67 16.89 4.7 1.13 5.02 5.05 4.39 9.35-.63 4.29-2.41 3.67-8.26.14s-6.09 8.82-9.42.26c-3.32-8.56-.66-14.95-.16-17.88.5-2.93 7.29-9.4 7.29-9.4h.02zm72.42 76.42s-8.58 5.8-10.4 9.93c-1.82 4.13-5.79 6.63-6.64 4.97-.85-1.66-2.33-1.22-.56-4.79 1.77-3.57 1.38-4.03 3.25-7.16s1.98-4.26 6.33-4.72c4.35-.45 7.45-1.45 7.74.15l.28 1.6v.02zm4.13-14.97s-2.93 3.74-4.33 3.33c-1.4-.42-3.9-1.23-3.78.51.12 1.73 2.71 3.27 3.82 3.66 1.11.39 5.11 3.64 5.64 1.1.52-2.53 4.67-3.87 3.43-5.99-1.24-2.12-3.87-3.09-4.78-2.6v-.01zm-54.88 81.33s-4.81 3.76-5.1 8.19c-.29 4.43-4.94 6.52-.97 11.59 3.98 5.07 7.17 14.76 8.91 11.55 1.75-3.21-1.68-5.21-.6-11.61 1.08-6.4-.22-5.32 1.5-9.61 1.73-4.29 2.8-8.04.72-8.96-2.08-.92-4.47-1.14-4.47-1.14l.01-.01zm10.12 11.43c-.92 3.4-.7 11.37 1.03 12.14 1.73.76 7.88.74 9.99-1.23 2.11-1.97 6.57-5.89 1.93-7.76-4.64-1.88-8.7-.94-10.34-3.98-1.64-3.04-2.61.84-2.61.84v-.01z" fill="#8BD2A0"/><path d="M245.009 168.478c-1.09-2.76-5.29-1.16-4.37 1.66.76 2.34 1.26 5.4.37 8.51-1.87 6.52 9.13 13.1 11.58 16.05 2.45 2.95 7.07-3.94 1.51-8.33-5.56-4.39-7.95-3.36-7.91-10.47.01-2.77-.39-5.41-1.18-7.41v-.01zm-1.72-6.51c-1.06.23-2.15.28-3.22.09-1.42-.25-3.22-.72-4.57-1.56-2.6-1.62 4.23-2.87 6.91-4.94 2.69-2.07 7.31-1.81 8.57 2.18 1.04 3.28-5.27 3.72-7.69 4.24v-.01zm-142.14.13s3.86 7.82 7.67 8.25c3.81.43 4.26 2.38 6.12 1.19 1.86-1.19 5.36-2.56.97-7.17-4.39-4.61-.65-9.21-7.58-7.36-6.93 1.85-6.35-.03-7.17 5.09h-.01zm142.89 87.83s1.45-4.32-.19-7.19.4-6.09-4.16-7.61c-4.56-1.52-10.52-6.25-10.29-3.53.23 2.71 3.19 2.56 5.14 6.99 1.95 4.43 2.32 3.22 3.01 6.6.69 3.38 1.56 6.16 3.23 5.87 1.67-.28 3.25-1.12 3.25-1.12l.01-.01z" fill="#8BD2A0"/><path d="M49.89 164.798c5.15-5.4 12-11.02 17.22-9.25 9.32 3.16 20.4-.15 24.69 3 4.29 3.15-.74 12.76-4.75 16.51-4.02 3.75-4.15 7.63 1.85 4.75 6-2.87 7.87-8.2 13.189-6.32 5.32 1.87 6.17 7.45 10.14 6.68 3.97-.77 10.45-1.54 11.44.16.99 1.7 3.32 8.56-10.68 8.85-14 .29-14.72 5.49-13.82 8.1.9 2.6-1.33 4.46-5.14 5.93-3.8 1.48-4.24 11.06-10.2 13.48-5.95 2.42-2.55 10.07 5.15 3.69 7.7-6.38 19.1-8.29 19.78-13.04.67-4.75-1.75-10.7 7.43-13.28s14.51-5.74 20.61-2.42c6.1 3.32 11.17 7.92 13.58 16.39s-7.29 6.88-9.42 17.44c-2.14 10.57-8.4 6.54-1.12 16.85 7.28 10.3 15.24 13.34 14.43 24.49-.82 11.15 9.67 11.67-4.14 17.25-13.81 5.58-13.82-6.56-24.59-8.95-10.77-2.38-3.83-5.63-11.57-10.93-6.89-4.72-8.95.79-18.79-.11a119.73 119.73 0 0 1-17.76-17.43c-19.78-23.88-28.77-53.13-27.53-81.84zm51.859-80.68c6.86-2.34 7.14 2.04 6.29 8.61-.84 6.56.63 12.89 9.37 17.37 8.74 4.48 8.6 10.88 10.24 15.39 1.64 4.51 1.84 7.27-9.87.22-11.71-7.05-9.78-3.21-19.2-.42-9.42 2.78-14.63 4.59-16.31-1.99-1.68-6.57.72-7.72-5.55-9.22-5.14-1.23-9.35 2.38-12.34-1.59a119.586 119.586 0 0 1 23.83-30.62c4.8 1.87 10.25 3.37 13.54 2.25zm33.15-29.15c-.29 2.69-1.55 5.5-4.81 7.75-2.99 2.06-4.81 4.39-6.1 6.62-2.61 4.52-3.03 8.64-6.63 9.37-5.37 1.1-8.29-4.44-17.79-3.27-1.51.19-2.81.19-3.95.08 12.05-9.49 25.38-16.31 39.27-20.54l.01-.01zm21.15 2.16c-6.54 6.26-3.5 10.44-8.83 13.6-5.34 3.17-13.96-.16-10.52-5.11 3.44-4.95 13.08-10 9.74-13.52 0 0-.01-.02-.02-.03 4.42-.88 8.88-1.5 13.35-1.88-.42 2.3-1.46 4.76-3.72 6.92v.02zm-6.44 41.78c7.88 1.43 17.02 11.44 21.29 7.49 4.26-3.95-2.58-6.66-1.9-13.92.68-7.27-16.84-3.64-22.42-2.79-5.58.85-10.15-1.64-1.17-9.5s7.96-11.62 17.68-17.59c4.74-2.9 6.21-8.18 6.48-12.83 10.94-.03 21.86 1.44 32.43 4.35 1.37 2.88 3.31 6.35 5.9 9.46 5.76 6.95 6.12 12.94 12.83 19.53 6.71 6.58 21.11 29.01 16.64 30.19-4.46 1.19-7.93-13.11-13.72-12.51-5.78.6 14.37 22.66 14.22 26.76-.68 17.97-18.52 21.63-19.24 26.83-.72 5.2-9.67 2.99-3.2-7.4s-5.63-8.32 1.61-14.74-4.84-11.91-7.78-7.37c-2.94 4.53-11.16 1.7-8.98 7.86 2.17 6.16 1.67 9.09-6.32 1.47s-6.2 2.63-15.6-4.67c-9.4-7.29-9.39 4.85-16.17 8.79-6.78 3.95-10.57-2.14-3.48-9.26 7.08-7.13 2.96-9.57-.69-4.88-3.65 4.7-7.97 14.14-10.01 4.1" fill="#8BD2A0"/><path d="M163.089 62.598c4.74-2.9 6.21-8.18 6.48-12.83m1.33 56.63c4.26-3.95-2.58-6.66-1.9-13.92.68-7.27-16.84-3.64-22.42-2.79-5.58.85-10.15-1.64-1.17-9.5m48.54 54.03c-7.99-7.62-6.2 2.63-15.6-4.67-9.4-7.29-9.39 4.85-16.17 8.79-6.78 3.95-10.57-2.14-3.48-9.26 7.08-7.13 2.96-9.57-.69-4.88-3.65 4.7-7.97 14.14-10.01 4.1m70.63 26.1c-.72 5.2-9.67 2.99-3.2-7.4s-5.63-8.32 1.61-14.74-4.84-11.91-7.78-7.37c-2.94 4.53-11.16 1.7-8.98 7.86m23.37-31.94c-5.78.6 14.37 22.66 14.22 26.76m-29.97-63.97c5.76 6.95 6.12 12.94 12.83 19.53 6.71 6.58 21.11 29.01 16.64 30.19" stroke="#fff" stroke-width=".38" stroke-miterlimit="10" stroke-linecap="round"/><path d="M130.259 78.078s6.37-4.44 6.81.64c.44 5.08-5.37 15.76-.67 16.89 4.7 1.13 5.02 5.05 4.39 9.35-.63 4.29-2.41 3.67-8.26.14s-6.09 8.82-9.42.26c-3.32-8.56-.66-14.95-.16-17.88.5-2.93 7.29-9.4 7.29-9.4h.02zm-31.679 47.2c-9.42 2.78-14.63 4.59-16.31-1.99-1.68-6.57.72-7.72-5.55-9.22m40.689-3.98c8.74 4.48 8.6 10.88 10.24 15.39 1.64 4.51 1.84 7.27-9.87.22M88.21 81.858c4.8 1.87 10.25 3.37 13.539 2.25 6.86-2.34 7.14 2.04 6.29 8.61m17.54-25.75c-4.14 5.36-3.98 10.87-8.2 11.74-5.37 1.1-8.29-4.44-17.79-3.27m35.31-20.47c-.29 2.69-1.55 5.5-4.81 7.75m6.61 2.91c3.44-4.95 13.08-10 9.74-13.52 0 0-.01-.02-.02-.03m9.63 5.05c-6.54 6.26-3.5 10.44-8.83 13.6m-36.55 191.79c-4.57-1.31-7.41 2.28-15.49 1.54m13.58-56.73c.67-4.75-1.75-10.7 7.43-13.28s14.51-5.74 20.61-2.42m-52.969 25.04c-5.95 2.42-2.55 10.07 5.15 3.69m23.239-40.2c3.97-.77 10.45-1.54 11.44.16.99 1.7 3.32 8.56-10.68 8.85-14 .29-14.72 5.49-13.82 8.1m-7.359-38.72c4.29 3.15-.74 12.76-4.75 16.51-4.02 3.75-4.15 7.63 1.85 4.75 6-2.87 7.87-8.2 13.189-6.32m-52.199-8.69c5.15-5.4 12-11.02 17.22-9.25" stroke="#fff" stroke-width=".38" stroke-miterlimit="10" stroke-linecap="round"/></svg><svg fill="none" viewBox="0 0 119 108" id="products-butterfly" xmlns="http://www.w3.org/2000/svg"><path d="M65.289 107.393c3.18-.856 5.693-2.012 7.734-3.318 0 .022-.022.043-.043.064.28-.192.516-.385.795-.577.386-.279.795-.535 1.16-.835.322-.257.601-.535.88-.813a16.626 16.626 0 0 0 1.784-1.948c.172-.214.365-.428.515-.642.258-.364.451-.75.666-1.113.15-.257.301-.513.43-.77.193-.364.344-.75.494-1.113a16.883 16.883 0 0 0 .645-1.905c.064-.257.128-.514.193-.792.086-.364.15-.728.215-1.091a9.11 9.11 0 0 0 .086-.75c.043-.363.086-.706.107-1.048v-.6c0-.706 0-1.39-.043-2.033 0-.17 0-.342-.043-.492a8.805 8.805 0 0 0-.107-.835 5.326 5.326 0 0 0-.086-.578 20.46 20.46 0 0 0-.13-.684c-.042-.193-.064-.364-.107-.535a19.751 19.751 0 0 0-.129-.535c-.042-.172-.085-.3-.107-.45-.043-.128-.064-.257-.107-.364-.043-.128-.065-.235-.108-.32a1.39 1.39 0 0 0-.064-.172 3.446 3.446 0 0 1-.065-.171c17.208 4.045 18.69-1.049 23.438-11.065.387-.835.795-1.69 1.246-2.568 2.492-4.966 4.576-7.213 6.51-8.754 1.095-.877 2.126-1.54 3.158-2.333.129-.085.236-.192.365-.278.15-.107.279-.235.43-.364.15-.128.3-.278.451-.428l.386-.385c.172-.171.344-.364.516-.556.129-.129.236-.279.365-.407.194-.236.387-.492.58-.77.108-.129.194-.257.301-.407a.308.308 0 0 1 .064-.086c.28-.407.559-.856.838-1.348 2.815-4.901-6.659-8.69-19.485-7.898a64.15 64.15 0 0 0-3.931.386 57.36 57.36 0 0 0-8.271 1.69 56.802 56.802 0 0 0-4.232 1.349c-.71.257-1.418.513-2.105.813a59.291 59.291 0 0 0-6.252 2.975s-.043.021-.064.043c-.924.513-1.805 1.006-2.664 1.455-.215.107-.43.236-.623.343-.838.449-1.633.877-2.385 1.262l-.387.193c-.666.342-1.31.663-1.933.984-.15.065-.301.15-.451.214a50.28 50.28 0 0 1-1.912.92c-.13.065-.28.13-.409.193a47.4 47.4 0 0 1-1.546.707c-.065.042-.15.064-.215.107-.537.235-1.01.449-1.482.642-.108.042-.237.107-.344.15a27.31 27.31 0 0 1-1.29.513c-.042 0-.085.043-.128.043-.365.128-.709.257-1.031.364-.086.021-.172.064-.258.085-.322.107-.645.214-.924.3-.064 0-.129.043-.193.064-.258.064-.473.129-.688.193-.043 0-.085.021-.129.043a4.28 4.28 0 0 1-.644.128c-.043 0-.086 0-.129.021-.193.022-.365.043-.515.065h-.495c-.129 0-.236 0-.322-.043-.086 0-.172-.043-.236-.064-.065-.022-.13-.065-.172-.086-.172-.107-.193-.235-.193-.278 1.482-.364 2.792-1.327 3.501-2.804.602-1.241.645-2.568.28-3.788 4.404-.985 11.643-3.21 16.327-8.026.3-.32.3-.835 0-1.134a.813.813 0 0 0-1.139 0c-4.468 4.601-11.73 6.742-15.897 7.64a5.137 5.137 0 0 0-2.02-1.733 5.293 5.293 0 0 0-3.222-.428c-1.89-3.681-5.049-10.958-4.21-17.593.064-.45-.259-.834-.71-.899-.45-.064-.838.257-.902.707-.88 6.998 2.256 14.425 4.254 18.32-.967.514-1.783 1.305-2.278 2.354-.709 1.477-.644 3.103 0 4.495-.064.02-.107.085-.172.107h-.042c-.065-.043-.15-.107-.237-.172-.021 0-.043-.043-.064-.064l-.236-.235a.645.645 0 0 1-.108-.15c-.086-.107-.15-.214-.236-.343l-.13-.192a6.977 6.977 0 0 1-.321-.578c-.022-.064-.065-.107-.086-.171-.15-.3-.28-.62-.451-1.006-.043-.086-.065-.193-.108-.278a16.78 16.78 0 0 1-.387-1.006 4.138 4.138 0 0 0-.171-.471 12.783 12.783 0 0 1-.366-1.177c-.064-.172-.107-.364-.172-.557a40.919 40.919 0 0 1-.515-1.819c0-.085-.043-.128-.065-.214a70.104 70.104 0 0 1-.601-2.461 8.405 8.405 0 0 0-.172-.706c-.15-.685-.322-1.392-.472-2.162-.065-.342-.15-.685-.215-1.049-.15-.77-.323-1.584-.473-2.418a24.286 24.286 0 0 0-.215-1.092 175.213 175.213 0 0 1-.709-3.938c-1.16-6.913-3.652-13.269-6.702-18.684a58.51 58.51 0 0 0-3.201-5.072 48.054 48.054 0 0 0-2.127-2.804c-.43-.535-.86-1.027-1.29-1.52C19.896.576 13.194-2.357 11.432 2.116c-.215.578-.408 1.092-.558 1.606-.043.17-.086.32-.13.492-.085.32-.171.642-.236.942-.043.192-.064.363-.107.535-.043.256-.086.492-.107.727l-.065.557c0 .214-.021.406-.043.62v1.028c.022 1.305.15 2.525.15 3.916 0 2.462-.45 5.48-2.77 10.53-.409.9-.839 1.755-1.225 2.59-4.855 9.952-7.927 14.297 6.015 25.126 0 0-.065 0-.129.043h-.021c-.086.043-.237.085-.409.15h-.043c-1.675.663-6.487 2.932-9.41 7.683-2.362 3.83-3.5 9.288-.687 16.843.237.621.473 1.242.774 1.884.279.642.601 1.241.924 1.819v.021c.322.557.666 1.05 1.01 1.52 9.795 12.777 32.482-4.922 36.241-8.004l-7.24 16.672a1.64 1.64 0 0 0 .795 2.119c.795.385 1.74.064 2.149-.728l8.7-16.694s-1.289 36.577 18.196 33.73h.065c.644-.107 1.31-.235 1.997-.428l.022-.021z" fill="#55B76B"/></svg><svg fill="none" viewBox="0 0 107 153" id="white-branch" xmlns="http://www.w3.org/2000/svg"><path d="M46.932 96.654c-.22-2.848-1.779-19.678-7.853-27.515C7.016 51.981 22.266 22.662 22.266 22.662c13.477 6.792 21.76 17.82 23.203 27.862.94 6.514-.184 13.252-1.102 17.225 3.483 5.524 5.434 13.272 6.507 19.377.77-1.62 1.55-3.247 2.433-4.855 5.65-10.362 8.855-18.275 10.654-24.28C42.796 40.106 67.844.656 67.844.656 70.924 5.138 83.532 9.2 83.726 29.63c.148 14.82-9.13 23.908-14.256 27.796-1.504 5.575-4.127 12.616-8.631 21.549a55.841 55.841 0 0 1 4.429-2.53c11.896-34.364 41.717-22.415 41.717-22.415-11.948 36.545-34.12 30.694-41.011 27.845-3.804 2.144-8.5 5.512-10.092 6.675-5.77 11.864-8.527 23.909-9.712 34.289 2.263-2.008 5.064-4.165 8.018-5.753 11.638-27.288 46.379-16.959 46.379-16.959-10.91 36.979-40.41 26.321-47.004 23.413-3.658 2.595-6.778 5.75-8.042 7.083-.626 12.468.813 21.058.855 21.225l-5.067.904c-.148-.823-1.988-11.821-.675-27.078-.596-2.223-3.533-12.427-8.788-18.262C3.176 108.223.59 60.065.59 60.065l17.927 13.721c12.957 9.91 15.768 22.897 16.341 29.339 3.118 3.145 5.541 7.416 7.286 11.365A112.138 112.138 0 0 1 46.9 96.659l.032-.005z" fill="#fff"/></svg><svg fill="none" viewBox="0 0 96 92" id="white-butterfly" xmlns="http://www.w3.org/2000/svg"><path d="M94.49 59.604c.64-2.513.81-4.706.712-6.614l.019.065c-.01-.278-.055-.521-.08-.77-.038-.386-.072-.75-.126-1.107-.05-.336-.15-.61-.214-.919a12.548 12.548 0 0 0-.656-1.982c-.083-.21-.166-.42-.242-.608-.163-.327-.335-.605-.513-.904-.126-.197-.23-.4-.356-.598a38.712 38.712 0 0 0-.57-.772c-.14-.17-.288-.36-.423-.509a14.062 14.062 0 0 0-.63-.66l-.472-.427a8.129 8.129 0 0 0-.67-.556c-.15-.12-.323-.234-.474-.355-.234-.166-.468-.333-.695-.479l-.416-.231a17.7 17.7 0 0 0-1.428-.761c-.111-.062-.244-.118-.355-.18-.215-.102-.424-.182-.634-.263-.154-.05-.292-.127-.425-.182-.181-.065-.363-.13-.517-.18-.154-.05-.28-.084-.413-.14-.154-.05-.28-.083-.406-.117s-.231-.075-.351-.087c-.099-.019-.204-.06-.302-.078-.099-.019-.197-.037-.274-.062a76.87 76.87 0 0 0-.148-.028l-.148-.028c9.492-10.27 6.54-13.28 1.453-20.442-.427-.602-.854-1.204-1.3-1.87-2.46-3.662-3.208-5.969-3.52-7.886-.17-1.094-.233-2.055-.385-3.085a1.97 1.97 0 0 1-.054-.357c-.043-.152-.058-.287-.08-.444a3.575 3.575 0 0 1-.113-.481l-.116-.41c-.055-.194-.11-.389-.187-.577a2.79 2.79 0 0 0-.138-.404c-.089-.231-.2-.456-.316-.703-.037-.13-.117-.247-.175-.37l-.024-.086a9.434 9.434 0 0 0-.612-1.086c-2.303-3.847-8.59 1.2-13.017 10.338a53.722 53.722 0 0 0-1.265 2.854 48.555 48.555 0 0 0-2.05 6.34c-.263 1.125-.521 2.27-.708 3.42-.09.585-.181 1.17-.266 1.777a42.527 42.527 0 0 0-.361 5.466l.012.043c.005.838-.003 1.633-.017 2.407.006.184-.01.376-.004.56-.02.752-.03 1.455-.047 2.136-.013.12-.004.234-.016.354a69.14 69.14 0 0 1-.078 1.7 7.552 7.552 0 0 0-.025.404c-.02.589-.073 1.14-.105 1.686-.012.12-.025.24-.016.354a25.34 25.34 0 0 1-.11 1.337c.018.065-.013.12-.016.191a21.94 21.94 0 0 1-.129 1.273c-.019.098-.016.19-.034.29-.053.387-.091.748-.135 1.087.012.043-.003.07-.013.12-.05.317-.09.585-.13.853-.004.07-.029.148-.032.219-.04.268-.109.52-.161.745-.01.05-.02.099-.028.148-.038.197-.103.379-.146.554.006.022-.025.077-.019.099-.065.182-.108.357-.164.49.006.021-.025.077-.04.104l-.168.397c-.061.111-.102.216-.17.305l-.03.056c-.047.083-.1.144-.152.206a.674.674 0 0 1-.148.135.418.418 0 0 1-.139.086c-.145.064-.244.046-.271.03.322-1.164.168-2.449-.579-3.52a4.125 4.125 0 0 0-2.502-1.668c1.036-3.419 2.289-9.277.794-14.38-.097-.345-.451-.524-.797-.426-.345.098-.524.452-.426.797 1.448 4.859.118 10.693-.88 13.914a3.99 3.99 0 0 0-1.986.726 4.162 4.162 0 0 0-1.542 2.047c-3.275-.12-9.53-.795-13.782-3.949-.29-.198-.674-.158-.894.137-.197.29-.158.675.137.894 4.493 3.342 10.858 4.078 14.324 4.214-.01.866.212 1.736.753 2.492.747 1.07 1.892 1.655 3.11 1.753a.38.38 0 0 1 .02.157l-.021.006c-.065.018-.123.058-.204.104a39.619 39.619 0 0 0-.345.098l-.151.043c-.086.025-.206.012-.342.027-.065.018-.114.01-.185.006-.163 0-.327 0-.518-.016a.317.317 0 0 1-.141-.007c-.262-.019-.552-.053-.863-.082-.07-.003-.148-.028-.219-.03l-.853-.132a2.689 2.689 0 0 1-.394-.075c-.296-.055-.62-.127-.964-.192-.148-.028-.296-.056-.45-.106-.45-.106-.927-.227-1.454-.357-.05-.01-.105-.04-.175-.044-.604-.155-1.242-.347-1.928-.549a6.051 6.051 0 0 1-.56-.167 32.633 32.633 0 0 1-1.689-.524c-.258-.09-.538-.174-.797-.263-.588-.183-1.21-.403-1.854-.617a14.07 14.07 0 0 1-.825-.279 84.792 84.792 0 0 1-3.006-1.06c-5.22-1.877-10.595-2.66-15.516-2.663a47.063 47.063 0 0 0-4.74.225c-.949.106-1.87.227-2.764.364a41.28 41.28 0 0 0-1.554.278C3.12 49.217-1.518 52.678.883 55.635c.317.376.6.716.892 1.006.101.111.19.18.292.29.19.18.36.364.544.522.123.105.219.194.336.278.15.12.307.262.452.361l.35.25c.146.1.262.183.401.26.139.077.255.16.394.238.11.062.222.124.326.164.908.489 1.807.863 2.783 1.426 1.696.965 3.61 2.45 6.204 6.005.461.638.894 1.262 1.294 1.848 4.99 7.235 6.814 11.032 19.72 5.645 0 0 .012.043-.013.12a1.444 1.444 0 0 0-.044.34l.007.02c-.179 1.427-.483 5.617 1.658 9.464 1.726 3.124 5.067 6.024 11.37 7.034a22.6 22.6 0 0 0 1.595.2c.552.054 1.097.086 1.609.08l.021-.005c.512-.006.99-.048 1.44-.106 12.627-1.763 9.197-24.294 8.539-28.095l8.711 11.473a1.254 1.254 0 0 0 1.756.272 1.294 1.294 0 0 0 .342-1.753l-8.16-12.492s24.792 15.142 30.394.612l.03-.056c.193-.474.351-.985.475-1.533l-.11.101z" fill="#fff"/></svg><svg fill="none" viewBox="0 0 99 144" id="yellow-bg-leaf" xmlns="http://www.w3.org/2000/svg"><path d="M50.703 49.416 58.13 1.38c.256-1.633 2.368-1.896 2.916-.362 3.847 10.743 10.37 35.844-5.54 51.167l-4.802-2.77zm-3.321 11.226L2.17 78.67c-1.536.61-2.837-1.072-1.792-2.322 7.311-8.77 25.647-27.138 46.955-21.245l.05 5.539zm12.205-3.472 37.787 30.646c1.288 1.043.448 2.996-1.159 2.698-11.23-2.11-36.23-9.153-41.45-30.597l4.822-2.74v-.008z" fill="#B7D331"/><path d="m55.514 56.978-7.79.72 8.004 86.3 7.79-.72-8.004-86.3z" fill="#B7D331"/><path d="M58.983 59.779c1.564-4.327-.68-9.1-5.014-10.663-4.334-1.562-9.116.68-10.68 5.006-1.565 4.327.68 9.1 5.014 10.663 4.334 1.562 9.115-.68 10.68-5.006z" fill="#AABC02"/><path d="M56.948 59.18c-1.23 3.202-4.836 4.806-8.044 3.578-3.208-1.229-4.815-4.829-3.585-8.03 1.23-3.203 4.837-4.808 8.044-3.58 3.208 1.229 4.816 4.829 3.585 8.031z" fill="#fff"/><path opacity=".25" d="m28.122 65.882-12.29 5.055M40.924 60.62l-8.172 3.36m34.708 3.138-5.917-4.658m19.324 15.216-10.441-8.222M91.734 86.24 84.8 80.771M55.696 30.06l-2.048 13.114m4.182-26.769-1.365 8.72" stroke="#89960B" stroke-width=".67" stroke-miterlimit="10" stroke-linecap="round"/><path opacity=".25" d="M46.642 55.26a4.875 4.875 0 0 1 6.295-2.798m2.802 6.284a4.875 4.875 0 0 1-6.294 2.798" stroke="#89960B" stroke-width=".52" stroke-miterlimit="10" stroke-linecap="round"/></svg><svg fill="none" viewBox="0 0 124 101" id="yellow-leaves" xmlns="http://www.w3.org/2000/svg"><path d="M91.11 34.185 96.245.955c.177-1.13 1.639-1.312 2.017-.25 2.662 7.431 7.174 24.795-3.832 35.395l-3.322-1.915zm-2.298 7.765L57.535 54.423c-1.063.423-1.963-.741-1.24-1.606 5.058-6.066 17.742-18.774 32.482-14.697l.035 3.832zm8.443-2.402 26.14 21.2c.891.723.31 2.074-.802 1.867-7.769-1.459-25.063-6.331-28.674-21.166l3.336-1.896v-.005z" fill="#B7D331"/><path d="m94.438 39.416-5.39.498 5.537 59.701 5.39-.498-5.537-59.701z" fill="#B7D331"/><path d="M96.837 41.354a5.76 5.76 0 0 0-3.469-7.376 5.774 5.774 0 0 0-7.388 3.463 5.76 5.76 0 0 0 3.469 7.376 5.774 5.774 0 0 0 7.388-3.463z" fill="#AABC02"/><path d="M95.43 40.939a4.313 4.313 0 0 1-5.565 2.476 4.302 4.302 0 0 1-2.48-5.556 4.313 4.313 0 0 1 5.565-2.476 4.302 4.302 0 0 1 2.48 5.556z" fill="#fff"/><path opacity=".25" d="m75.488 45.576-8.502 3.497m17.358-7.137-5.653 2.323m24.01 2.171-4.093-3.222m13.368 10.526-7.223-5.688m14.741 11.613-4.797-3.782M94.563 20.794l-1.417 9.073m2.894-18.518-.945 6.032" stroke="#89960B" stroke-width=".67" stroke-miterlimit="10" stroke-linecap="round"/><path opacity=".25" d="M88.3 38.227a3.372 3.372 0 0 1 4.354-1.935m1.939 4.348a3.372 3.372 0 0 1-4.354 1.934" stroke="#89960B" stroke-width=".52" stroke-miterlimit="10" stroke-linecap="round"/><path d="m26.55 51.471 3.888-25.153c.134-.855 1.24-.992 1.527-.19 2.015 5.626 5.43 18.77-2.901 26.794l-2.514-1.45zm-1.74 5.879L1.137 66.79c-.804.32-1.486-.561-.939-1.215 3.829-4.592 13.43-14.211 24.588-11.125l.026 2.9zm6.392-1.818 19.787 16.047c.674.547.234 1.57-.607 1.413-5.881-1.104-18.972-4.793-21.705-16.021l2.525-1.435v-.004z" fill="#B7D331"/><path d="m29.07 55.431-4.08.377 4.191 45.19 4.08-.377-4.192-45.19z" fill="#B7D331"/><path d="M30.886 56.898a4.36 4.36 0 0 0-2.626-5.583 4.37 4.37 0 0 0-5.592 2.62 4.36 4.36 0 0 0 2.625 5.584 4.37 4.37 0 0 0 5.593-2.621z" fill="#AABC02"/><path d="M29.82 56.584a3.265 3.265 0 0 1-4.212 1.874 3.256 3.256 0 0 1-1.877-4.205 3.265 3.265 0 0 1 4.212-1.874 3.256 3.256 0 0 1 1.877 4.205z" fill="#fff"/><path opacity=".25" d="M14.726 60.094 8.29 62.74m13.14-5.401-4.28 1.758m18.174 1.643-3.098-2.438m10.119 7.968-5.468-4.306m11.158 8.79-3.63-2.863m-15.24-26.555-1.073 6.867m2.19-14.017-.715 4.566" stroke="#89960B" stroke-width=".67" stroke-miterlimit="10" stroke-linecap="round"/><path opacity=".25" d="M24.424 54.531a2.553 2.553 0 0 1 3.296-1.465m1.467 3.291a2.553 2.553 0 0 1-3.296 1.465" stroke="#89960B" stroke-width=".52" stroke-miterlimit="10" stroke-linecap="round"/></svg><svg fill="none" viewBox="0 0 75 109" id="yellow-sm-leaf" xmlns="http://www.w3.org/2000/svg"><path d="M38.38 37.405 44 1.045C44.194-.191 45.793-.39 46.207.77c2.913 8.132 7.85 27.131-4.193 38.73l-3.634-2.096zm-2.515 8.497L1.642 59.55c-1.162.46-2.148-.813-1.357-1.76C5.82 51.153 19.7 37.25 35.828 41.71l.037 4.192zm9.239-2.628L73.707 66.47c.974.79.339 2.268-.878 2.043-8.5-1.597-27.424-6.928-31.375-23.16l3.65-2.075v-.005z" fill="#B7D331"/><path d="m42.021 43.129-5.897.545 6.059 65.324 5.897-.545-6.059-65.324z" fill="#B7D331"/><path d="M44.647 45.249a6.302 6.302 0 0 0-3.796-8.07 6.318 6.318 0 0 0-8.084 3.788 6.302 6.302 0 0 0 3.796 8.071 6.318 6.318 0 0 0 8.084-3.789z" fill="#AABC02"/><path d="M43.106 44.795a4.72 4.72 0 0 1-6.088 2.71 4.707 4.707 0 0 1-2.714-6.08 4.72 4.72 0 0 1 6.09-2.708 4.707 4.707 0 0 1 2.712 6.078z" fill="#fff"/><path opacity=".25" d="m21.287 49.869-9.303 3.827m18.993-7.81-6.186 2.542m26.272 2.376-4.479-3.526m14.627 11.519-7.903-6.224m16.13 12.705-5.25-4.138M42.159 22.753l-1.55 9.928m3.165-20.263-1.034 6.6" stroke="#89960B" stroke-width=".67" stroke-miterlimit="10" stroke-linecap="round"/><path opacity=".25" d="M35.306 41.828a3.69 3.69 0 0 1 4.764-2.117m2.121 4.757a3.69 3.69 0 0 1-4.764 2.117" stroke="#89960B" stroke-width=".52" stroke-miterlimit="10" stroke-linecap="round"/></svg></svg>